<?xml version="1.0" encoding="UTF-8" standalone="no"?>
<!DOCTYPE svg PUBLIC "-//W3C//DTD SVG 1.1//EN" "http://www.w3.org/Graphics/SVG/1.1/DTD/svg11.dtd">
<!-- Created with Vectornator (http://vectornator.io/) -->
<svg height="100%" stroke-miterlimit="10" style="fill-rule:nonzero;clip-rule:evenodd;stroke-linecap:round;stroke-linejoin:round;" version="1.1" viewBox="0 0 300 300" width="100%" xml:space="preserve" xmlns="http://www.w3.org/2000/svg" xmlns:xlink="http://www.w3.org/1999/xlink">
<defs/>
<g id="Sans-titre">
<path d="M34.8431 82.4542C34.8431 57.7613 54.8607 37.7437 79.5536 37.7437L220.133 37.7437C244.826 37.7437 264.843 57.7613 264.843 82.4542L264.843 223.033C264.843 247.726 244.826 267.744 220.133 267.744L79.5536 267.744C54.8607 267.744 34.8431 247.726 34.8431 223.033L34.8431 82.4542Z" fill="none" opacity="1" stroke="#ffffff" stroke-linecap="butt" stroke-linejoin="round" stroke-width="15"/>
<path d="M34.8431 82.6485C34.8431 57.8483 54.9476 37.7437 79.7479 37.7437L219.938 37.7437C244.739 37.7437 264.843 57.8483 264.843 82.6485L264.843 109.966L34.8431 109.966L34.8431 82.6485Z" fill="#ffffff" fill-rule="nonzero" opacity="1" stroke="none"/>
<g opacity="1">
<path d="M133.415 148.892C133.415 143.391 137.874 138.932 143.375 138.932L156.312 138.932C161.812 138.932 166.272 143.391 166.272 148.892L166.272 161.829C166.272 167.33 161.812 171.789 156.312 171.789L143.375 171.789C137.874 171.789 133.415 167.33 133.415 161.829L133.415 148.892Z" fill="#ffffff" fill-rule="nonzero" opacity="1" stroke="none"/>
<path d="M133.415 209.9C133.415 204.4 137.874 199.94 143.375 199.94L156.312 199.94C161.812 199.94 166.272 204.4 166.272 209.9L166.272 222.837C166.272 228.338 161.812 232.797 156.312 232.797L143.375 232.797C137.874 232.797 133.415 228.338 133.415 222.837L133.415 209.9Z" fill="#ffffff" fill-rule="nonzero" opacity="1" stroke="none"/>
<g opacity="1">
<path d="M73.615 148.892C73.615 143.391 78.0743 138.932 83.5751 138.932L96.512 138.932C102.013 138.932 106.472 143.391 106.472 148.892L106.472 161.829C106.472 167.33 102.013 171.789 96.512 171.789L83.5751 171.789C78.0743 171.789 73.615 167.33 73.615 161.829L73.615 148.892Z" fill="#ffffff" fill-rule="nonzero" opacity="1" stroke="none"/>
<path d="M73.615 209.9C73.615 204.4 78.0743 199.94 83.5751 199.94L96.512 199.94C102.013 199.94 106.472 204.4 106.472 209.9L106.472 222.837C106.472 228.338 102.013 232.797 96.512 232.797L83.5751 232.797C78.0743 232.797 73.615 228.338 73.615 222.837L73.615 209.9Z" fill="#ffffff" fill-rule="nonzero" opacity="1" stroke="none"/>
<path d="M193.214 148.892C193.214 143.391 197.673 138.932 203.174 138.932L216.111 138.932C221.612 138.932 226.071 143.391 226.071 148.892L226.071 161.829C226.071 167.33 221.612 171.789 216.111 171.789L203.174 171.789C197.673 171.789 193.214 167.33 193.214 161.829L193.214 148.892Z" fill="#ffffff" fill-rule="nonzero" opacity="1" stroke="none"/>
<path d="M193.214 209.9C193.214 204.4 197.673 199.94 203.174 199.94L216.111 199.94C221.612 199.94 226.071 204.4 226.071 209.9L226.071 222.837C226.071 228.338 221.612 232.797 216.111 232.797L203.174 232.797C197.673 232.797 193.214 228.338 193.214 222.837L193.214 209.9Z" fill="#ffffff" fill-rule="nonzero" opacity="1" stroke="none"/>
</g>
</g>
</g>
</svg>
