<?xml version="1.0" encoding="UTF-8" standalone="no"?>
<!DOCTYPE svg PUBLIC "-//W3C//DTD SVG 1.1//EN" "http://www.w3.org/Graphics/SVG/1.1/DTD/svg11.dtd">
<!-- Created with Vectornator (http://vectornator.io/) -->
<svg height="100%" stroke-miterlimit="10" style="fill-rule:nonzero;clip-rule:evenodd;stroke-linecap:round;stroke-linejoin:round;" version="1.1" viewBox="0 0 500 500" width="100%" xml:space="preserve" xmlns="http://www.w3.org/2000/svg" xmlns:xlink="http://www.w3.org/1999/xlink">
<defs>
<linearGradient gradientTransform="matrix(0.0218364 0 0 -0.0218364 66.4496 189.962)" gradientUnits="userSpaceOnUse" id="LinearGradient" x1="203.513" x2="967.987" y1="1729.02" y2="404.982">
<stop offset="0" stop-color="#18884f"/>
<stop offset="0.5" stop-color="#117e43"/>
<stop offset="1" stop-color="#0b6631"/>
</linearGradient>
<linearGradient gradientTransform="matrix(0 -50 50 0 406.654 206.857)" gradientUnits="userSpaceOnUse" id="LinearGradient_2" x1="0" x2="1" y1="0" y2="0">
<stop offset="0" stop-color="#25cf43"/>
<stop offset="1" stop-color="#61fd7d"/>
</linearGradient>
<radialGradient cx="158.429" cy="578.088" gradientTransform="matrix(0 -0.762157 0.709059 0 -190.032 212.875)" gradientUnits="userSpaceOnUse" id="RadialGradient" r="65">
<stop offset="0" stop-color="#ffdd55"/>
<stop offset="0.1" stop-color="#ffdd55"/>
<stop offset="0.5" stop-color="#ff543e"/>
<stop offset="1" stop-color="#c837ab"/>
</radialGradient>
<radialGradient cx="147.694" cy="473.455" gradientTransform="matrix(0.0668874 0.33406 -1.37736 0.275787 840.447 -138.02)" gradientUnits="userSpaceOnUse" id="RadialGradient_2" r="65">
<stop offset="0" stop-color="#3771c8"/>
<stop offset="0.128" stop-color="#3771c8"/>
<stop offset="1" stop-color="#6600ff" stop-opacity="0"/>
</radialGradient>
</defs>
<g id="Calque-1">
<path d="M99.483 68.7974L396.758 68.7974C405.911 68.7974 413.33 76.2169 413.33 85.3693L413.33 273.201C413.33 282.354 405.911 289.773 396.758 289.773L99.483 289.773C90.3306 289.773 82.9112 282.354 82.9112 273.201L82.9112 85.3693C82.9112 76.2169 90.3306 68.7974 99.483 68.7974Z" fill="#232325" fill-rule="nonzero" opacity="1" stroke="none"/>
<path d="M102.239 81.8585L394.002 81.8585C398.741 81.8585 402.582 85.6996 402.582 90.4379L402.582 268.133C402.582 272.871 398.741 276.712 394.002 276.712L102.239 276.712C97.5007 276.712 93.6596 272.871 93.6596 268.133L93.6596 90.4379C93.6596 85.6996 97.5007 81.8585 102.239 81.8585Z" fill="#2d2d2f" fill-rule="nonzero" opacity="1" stroke="none"/>
<path d="M53.2682 422.293L442.973 422.293L442.973 435.731C442.973 444.753 436.006 452.067 427.411 452.067L69.1552 452.067C60.381 452.067 53.2682 444.6 53.2682 435.389L53.2682 422.293Z" fill="#232325" fill-rule="nonzero" opacity="1" stroke="none"/>
<path d="M100.292 289.152L396.699 289.152C405.745 289.152 414.764 296.38 416.845 305.296L442.576 415.552C445.201 426.801 438.079 435.914 426.667 435.906L68.9772 435.655C58.0258 435.648 51.152 426.881 53.624 416.075L78.6779 306.552C80.8763 296.943 90.5534 289.152 100.292 289.152Z" fill="#2d2d2f" fill-rule="nonzero" opacity="1" stroke="none"/>
<path d="M104.425 301.509L389.629 300.23C396.475 300.199 403.233 305.563 404.725 312.211L413.579 351.676C415.233 359.049 410.419 365.025 402.827 365.025L92.389 365.025C85.0754 365.025 80.3701 359.253 81.8793 352.133L90.1582 313.075C91.506 306.716 97.8934 301.538 104.425 301.509Z" fill="#232325" fill-rule="nonzero" opacity="1" stroke="none"/>
<path d="M211.078 377.202L285.691 377.655C290.4 377.684 294.708 381.493 295.314 386.163L298.455 410.4C299.217 416.287 295.024 421.05 289.088 421.039L206.85 420.884C201.05 420.873 196.999 416.208 197.803 410.463L201.272 385.68C201.931 380.969 206.321 377.173 211.078 377.202Z" fill="#232325" fill-rule="nonzero" opacity="1" stroke="none"/>
<g opacity="1">
<path d="M97.845 165.5L78.0776 162.011L78.0776 187.787C78.0776 188.964 79.0318 189.918 80.2089 189.918L80.2089 189.918L114.318 189.918C115.495 189.918 116.45 188.964 116.45 187.787L116.45 187.787L116.45 178.29L97.845 165.5Z" fill="#185c37" fill-rule="nonzero" opacity="1" stroke="none"/>
<path d="M97.845 143.407L80.2089 143.407C79.0318 143.407 78.0776 144.361 78.0776 145.538L78.0776 145.538L78.0776 155.035L97.845 166.662L108.31 170.151L116.45 166.662L116.45 155.035L97.845 143.407Z" fill="#21a366" fill-rule="nonzero" opacity="1" stroke="none"/>
<path d="M78.0776 155.035L97.845 155.035L97.845 166.662L78.0776 166.662L78.0776 155.035Z" fill="#107c41" fill-rule="nonzero" opacity="1" stroke="none"/>
<path d="M92.2252 152.709L78.0776 152.709L78.0776 181.779L92.2252 181.779C93.4008 181.775 94.3528 180.823 94.3566 179.647L94.3566 154.84C94.3528 153.665 93.4008 152.713 92.2252 152.709Z" fill="#000000" fill-rule="nonzero" opacity="0.1" stroke="none"/>
<path d="M91.0624 153.872L78.0776 153.872L78.0776 182.942L91.0624 182.942C92.238 182.938 93.19 181.986 93.1938 180.81L93.1938 156.003C93.19 154.828 92.238 153.876 91.0624 153.872Z" fill="#000000" fill-rule="nonzero" opacity="0.2" stroke="none"/>
<path d="M91.0624 153.872L78.0776 153.872L78.0776 180.616L91.0624 180.616C92.238 180.612 93.19 179.66 93.1938 178.485L93.1938 156.003C93.19 154.828 92.238 153.876 91.0624 153.872Z" fill="#000000" fill-rule="nonzero" opacity="0.2" stroke="none"/>
<path d="M89.8997 153.872L78.0776 153.872L78.0776 180.616L89.8997 180.616C91.0752 180.612 92.0272 179.66 92.031 178.485L92.031 156.003C92.0272 154.828 91.0752 153.876 89.8997 153.872Z" fill="#000000" fill-rule="nonzero" opacity="0.2" stroke="none"/>
<path d="M68.581 153.872L89.8996 153.872C91.0768 153.872 92.031 154.826 92.031 156.003L92.031 177.322C92.031 178.499 91.0768 179.453 89.8996 179.453L68.581 179.453C67.4039 179.453 66.4496 178.499 66.4496 177.322L66.4496 156.003C66.4496 154.826 67.4039 153.872 68.581 153.872Z" fill="url(#LinearGradient)" fill-rule="nonzero" opacity="1" stroke="none"/>
<path d="M73.0508 173.59L77.5345 166.643L73.4264 159.733L76.731 159.733L78.9729 164.152C79.1799 164.572 79.3217 164.883 79.3985 165.089L79.4275 165.089C79.5748 164.754 79.7299 164.429 79.8927 164.114L82.2892 159.736L85.3229 159.736L81.1101 166.604L85.4299 173.59L82.202 173.59L79.6124 168.74C79.4905 168.534 79.387 168.317 79.3031 168.093L79.2648 168.093C79.1889 168.313 79.0883 168.523 78.9648 168.721L76.2985 173.59L73.0508 173.59Z" fill="#ffffff" fill-rule="nonzero" opacity="1" stroke="none"/>
<path d="M114.318 143.407L97.845 143.407L97.845 155.035L116.45 155.035L116.45 145.538C116.45 144.361 115.495 143.407 114.318 143.407L114.318 143.407Z" fill="#33c481" fill-rule="nonzero" opacity="1" stroke="none"/>
<path d="M97.845 166.662L116.45 166.662L116.45 178.29L97.845 178.29L97.845 166.662Z" fill="#107c41" fill-rule="nonzero" opacity="1" stroke="none"/>
</g>
<g opacity="1">
<path d="M133.794 283.287L164.905 283.287C167.359 283.287 169.349 281.297 169.349 278.843L169.349 247.732C169.349 245.277 167.359 243.287 164.905 243.287L133.794 243.287C131.339 243.287 129.349 245.277 129.349 247.732L129.349 278.843C129.349 281.297 131.339 283.287 133.794 283.287Z" fill="#2867b2" fill-rule="evenodd" opacity="1" stroke="none"/>
<path d="M163.794 277.732L157.858 277.732L157.858 267.622C157.858 264.85 156.805 263.301 154.611 263.301C152.224 263.301 150.977 264.913 150.977 267.622L150.977 277.732L145.257 277.732L145.257 258.472L150.977 258.472L150.977 261.067C150.977 261.067 152.697 257.884 156.784 257.884C160.869 257.884 163.794 260.379 163.794 265.538L163.794 277.732ZM138.432 255.951C136.484 255.951 134.905 254.359 134.905 252.397C134.905 250.434 136.484 248.843 138.432 248.843C140.381 248.843 141.959 250.434 141.959 252.397C141.959 254.359 140.381 255.951 138.432 255.951ZM135.478 277.732L141.443 277.732L141.443 258.472L135.478 258.472L135.478 277.732Z" fill="#ffffff" fill-rule="evenodd" opacity="1" stroke="none"/>
</g>
<g opacity="1">
<path d="M393.021 156.882C391.906 156.921 390.468 157.009 389.815 157.14C388.818 157.342 387.876 157.647 387.093 158.046C386.173 158.515 385.349 159.113 384.637 159.824C383.923 160.537 383.322 161.362 382.852 162.283C382.454 163.062 382.149 163.998 381.946 164.99C381.812 165.649 381.723 167.097 381.683 168.219C381.668 168.661 381.66 169.103 381.658 169.545L381.654 194.165C381.654 194.437 381.662 195.031 381.678 195.49C381.718 196.605 381.805 198.043 381.937 198.696C382.139 199.693 382.444 200.635 382.843 201.418C383.312 202.338 383.91 203.162 384.621 203.874C385.333 204.588 386.159 205.188 387.08 205.659C387.859 206.057 388.795 206.362 389.786 206.565C390.446 206.699 391.894 206.788 393.016 206.828C393.475 206.845 394.068 206.853 394.342 206.853L418.962 206.857C419.234 206.857 419.828 206.849 420.287 206.833C421.402 206.793 422.839 206.706 423.493 206.574C424.49 206.372 425.431 206.067 426.214 205.668C427.134 205.199 427.959 204.601 428.671 203.89C429.385 203.178 429.985 202.352 430.456 201.431C430.854 200.652 431.159 199.716 431.361 198.725C431.496 198.065 431.585 196.617 431.625 195.495C431.642 195.036 431.65 194.443 431.65 194.169L431.654 169.549C431.654 169.277 431.646 168.683 431.629 168.224C431.59 167.109 431.502 165.672 431.37 165.018C431.169 164.021 430.864 163.08 430.465 162.297C429.996 161.377 429.398 160.552 428.687 159.84C427.974 159.126 427.149 158.526 426.228 158.055C425.449 157.657 424.513 157.352 423.522 157.15C422.862 157.015 421.414 156.926 420.292 156.886C419.833 156.869 419.239 156.861 418.966 156.861L394.346 156.857C393.904 156.859 393.462 156.867 393.021 156.882" fill="url(#LinearGradient_2)" fill-rule="nonzero" opacity="1" stroke="none"/>
<path d="M415.321 185.148C414.876 184.925 412.687 183.848 412.278 183.699C411.87 183.551 411.573 183.477 411.276 183.922C410.98 184.368 410.126 185.371 409.866 185.668C409.607 185.965 409.347 186.002 408.901 185.779C408.456 185.557 407.021 185.086 405.32 183.57C403.996 182.389 403.103 180.931 402.843 180.486C402.583 180.04 402.815 179.799 403.038 179.577C403.238 179.378 403.483 179.057 403.706 178.797C403.929 178.537 404.003 178.351 404.151 178.054C404.3 177.757 404.226 177.497 404.114 177.274C404.003 177.051 403.112 174.86 402.741 173.969C402.38 173.101 402.013 173.218 401.739 173.205C401.48 173.192 401.183 173.189 400.886 173.189C400.589 173.189 400.106 173.3 399.698 173.746C399.29 174.192 398.14 175.269 398.14 177.46C398.14 179.651 399.735 181.768 399.958 182.065C400.181 182.363 403.098 186.859 407.566 188.788C408.628 189.246 409.458 189.52 410.104 189.726C411.171 190.064 412.142 190.016 412.909 189.902C413.765 189.774 415.544 188.825 415.915 187.785C416.286 186.745 416.286 185.854 416.175 185.668C416.064 185.482 415.767 185.371 415.321 185.148M407.196 196.239L407.19 196.239C404.532 196.238 401.924 195.524 399.65 194.175L399.109 193.854L393.502 195.324L394.999 189.86L394.647 189.299C393.164 186.941 392.381 184.216 392.382 181.418C392.385 173.253 399.03 166.61 407.202 166.61C411.158 166.611 414.878 168.154 417.675 170.953C420.472 173.752 422.011 177.473 422.009 181.43C422.006 189.596 415.361 196.239 407.196 196.239M419.803 168.826C416.438 165.458 411.963 163.603 407.196 163.601C397.372 163.601 389.376 171.593 389.372 181.417C389.371 184.557 390.192 187.622 391.752 190.324L389.223 199.557L398.671 197.08C401.275 198.499 404.205 199.247 407.188 199.248L407.196 199.248C417.019 199.248 425.015 191.255 425.019 181.431C425.021 176.67 423.168 172.194 419.803 168.826" fill="#ffffff" fill-rule="evenodd" opacity="1" stroke="none"/>
</g>
<g opacity="1">
<path d="M205.491 261.801L213.446 261.801L213.446 242.483L202.082 233.96L202.082 258.392C202.082 260.278 203.61 261.801 205.491 261.801" fill="#4285f4" fill-rule="nonzero" opacity="1" stroke="none"/>
<path d="M240.718 261.801L248.673 261.801C250.559 261.801 252.082 260.273 252.082 258.392L252.082 233.96L240.718 242.483" fill="#34a853" fill-rule="nonzero" opacity="1" stroke="none"/>
<path d="M240.718 227.71L240.718 242.483L252.082 233.96L252.082 229.415C252.082 225.199 247.269 222.795 243.9 225.324" fill="#fbbc04" fill-rule="nonzero" opacity="1" stroke="none"/>
<path d="M213.446 242.483L213.446 227.71L227.082 237.937L240.718 227.71L240.718 242.483L227.082 252.71" fill="#ea4335" fill-rule="nonzero" opacity="1" stroke="none"/>
<path d="M202.082 229.415L202.082 233.96L213.446 242.483L213.446 227.71L210.264 225.324C206.889 222.795 202.082 225.199 202.082 229.415" fill="#c5221f" fill-rule="nonzero" opacity="1" stroke="none"/>
</g>
<g opacity="1">
<path d="M79.5881 249.816C86.492 249.816 92.0886 244.219 92.0886 237.315C92.0886 230.411 86.492 224.814 79.5881 224.814C72.6842 224.814 67.0876 230.411 67.0876 237.315C67.0876 244.219 72.6842 249.816 79.5881 249.816Z" fill="#ffffff" fill-rule="nonzero" opacity="1" stroke="none"/>
<path d="M68.7621 243.568L57.938 224.82C55.7432 228.62 54.5876 232.931 54.5876 237.32C54.5876 241.709 55.7427 246.02 57.9372 249.82C60.1317 253.62 63.2881 256.776 67.0889 258.97C70.8897 261.163 75.2012 262.317 79.5897 262.316L90.4138 243.568L90.4138 243.565C89.3175 245.466 87.7398 247.045 85.8396 248.143C81.972 250.378 77.2059 250.379 73.3377 248.145C71.4372 247.048 69.8591 245.469 68.7621 243.569L68.7621 243.568Z" fill="#229342" fill-rule="nonzero" opacity="1" stroke="none"/>
<path d="M90.413 243.567L79.5892 262.315C83.9776 262.316 88.2889 261.161 92.0894 258.967C95.8899 256.773 99.0458 253.617 101.24 249.816C103.434 246.015 104.588 241.704 104.588 237.316C104.587 232.927 103.431 228.616 101.235 224.816L79.5873 224.816L79.5847 224.818C81.7793 224.817 83.9355 225.394 85.8364 226.49C87.7375 227.587 89.3159 229.165 90.4136 231.065C92.6475 234.933 92.6474 239.7 90.4133 243.568L90.413 243.567Z" fill="#fbc116" fill-rule="nonzero" opacity="1" stroke="none"/>
<path d="M79.5881 247.214C85.0537 247.214 89.4844 242.783 89.4844 237.317C89.4844 231.851 85.0537 227.421 79.5881 227.421C74.1225 227.421 69.6918 231.852 69.6918 237.317C69.6918 242.783 74.1225 247.214 79.5881 247.214Z" fill="#1a73e8" fill-rule="nonzero" opacity="1" stroke="none"/>
<path d="M79.5881 224.817L101.236 224.817C99.0424 221.016 95.8868 217.86 92.0863 215.665C88.2859 213.471 83.9747 212.316 79.5863 212.316C75.1978 212.316 70.8868 213.472 67.0868 215.667C63.2867 217.862 60.1314 221.019 57.9382 224.82L68.7624 243.568L68.7653 243.569C66.5301 239.702 66.5286 234.936 68.7613 231.067C69.8582 229.166 71.4367 227.588 73.3372 226.491C75.2377 225.394 77.3939 224.816 79.5886 224.817L79.5881 224.817Z" fill="#e33b2e" fill-rule="nonzero" opacity="1" stroke="none"/>
</g>
<g opacity="1">
<path d="M183.802 190.095C183.802 193.883 180.838 196.675 177.201 196.675C173.563 196.675 170.599 193.883 170.599 190.095C170.599 186.279 173.563 183.514 177.201 183.514C180.838 183.514 183.802 186.279 183.802 190.095ZM180.912 190.095C180.912 187.727 179.194 186.107 177.201 186.107C175.207 186.107 173.489 187.727 173.489 190.095C173.489 192.439 175.207 194.082 177.201 194.082C179.194 194.082 180.912 192.436 180.912 190.095Z" fill="#ea4335" fill-rule="nonzero" opacity="1" stroke="none"/>
<path d="M198.043 190.095C198.043 193.883 195.079 196.675 191.442 196.675C187.804 196.675 184.84 193.883 184.84 190.095C184.84 186.282 187.804 183.514 191.442 183.514C195.079 183.514 198.043 186.279 198.043 190.095ZM195.153 190.095C195.153 187.727 193.435 186.107 191.442 186.107C189.448 186.107 187.73 187.727 187.73 190.095C187.73 192.439 189.448 194.082 191.442 194.082C193.435 194.082 195.153 192.436 195.153 190.095Z" fill="#fbbc05" fill-rule="nonzero" opacity="1" stroke="none"/>
<path d="M211.691 183.912L211.691 195.726C211.691 200.586 208.825 202.571 205.437 202.571C202.247 202.571 200.328 200.437 199.604 198.693L202.12 197.646C202.568 198.717 203.665 199.98 205.434 199.98C207.603 199.98 208.947 198.642 208.947 196.124L208.947 195.177L208.846 195.177C208.199 195.975 206.953 196.672 205.38 196.672C202.09 196.672 199.076 193.806 199.076 190.118C199.076 186.404 202.09 183.514 205.38 183.514C206.95 183.514 208.196 184.211 208.846 184.986L208.947 184.986L208.947 183.915L211.691 183.915L211.691 183.912ZM209.151 190.118C209.151 187.801 207.605 186.107 205.638 186.107C203.645 186.107 201.974 187.801 201.974 190.118C201.974 192.412 203.645 194.082 205.638 194.082C207.605 194.082 209.151 192.412 209.151 190.118Z" fill="#4285f4" fill-rule="nonzero" opacity="1" stroke="none"/>
<path d="M216.215 176.987L216.215 196.272L213.397 196.272L213.397 176.987L216.215 176.987Z" fill="#34a853" fill-rule="nonzero" opacity="1" stroke="none"/>
<path d="M227.199 192.261L229.442 193.756C228.718 194.827 226.974 196.672 223.959 196.672C220.221 196.672 217.429 193.783 217.429 190.092C217.429 186.178 220.245 183.511 223.636 183.511C227.051 183.511 228.721 186.229 229.267 187.697L229.567 188.445L220.77 192.088C221.443 193.409 222.491 194.082 223.959 194.082C225.431 194.082 226.451 193.358 227.199 192.261ZM220.295 189.893L226.175 187.451C225.852 186.629 224.879 186.057 223.734 186.057C222.265 186.057 220.221 187.353 220.295 189.893Z" fill="#ea4335" fill-rule="nonzero" opacity="1" stroke="none"/>
<path d="M159.93 188.383L159.93 185.591L169.338 185.591C169.43 186.078 169.478 186.653 169.478 187.276C169.478 189.371 168.905 191.961 167.06 193.806C165.265 195.675 162.971 196.672 159.933 196.672C154.302 196.672 149.567 192.086 149.567 186.454C149.567 180.823 154.302 176.236 159.933 176.236C163.048 176.236 165.268 177.459 166.935 179.052L164.965 181.022C163.769 179.9 162.149 179.028 159.93 179.028C155.818 179.028 152.602 182.342 152.602 186.454C152.602 190.566 155.818 193.881 159.93 193.881C162.597 193.881 164.116 192.809 165.09 191.836C165.879 191.047 166.398 189.92 166.603 188.38L159.93 188.383Z" fill="#4285f4" fill-rule="nonzero" opacity="1" stroke="none"/>
</g>
<g opacity="1">
<path d="M231.593 38.2906C221.156 38.2906 218.104 38.3013 217.51 38.3506C215.368 38.5286 214.035 38.8659 212.583 39.5888C211.464 40.1445 210.582 40.7886 209.711 41.6915C208.125 43.3381 207.163 45.3639 206.815 47.7719C206.646 48.9409 206.597 49.1793 206.587 55.1505C206.583 57.1409 206.587 59.7604 206.587 63.274C206.587 73.7028 206.598 76.7522 206.648 77.3444C206.821 79.4286 207.148 80.7399 207.84 82.1743C209.163 84.9199 211.69 86.981 214.666 87.7501C215.697 88.0155 216.835 88.1616 218.296 88.2308C218.915 88.2577 225.226 88.277 231.54 88.277C237.854 88.277 244.168 88.2693 244.772 88.2385C246.464 88.1589 247.446 88.027 248.533 87.7463C251.528 86.9734 254.009 84.943 255.358 82.1589C256.037 80.7591 256.381 79.3979 256.537 77.4225C256.571 76.9918 256.585 70.125 256.585 63.2674C256.585 56.4087 256.57 49.5546 256.536 49.1239C256.378 47.1166 256.034 45.7669 255.333 44.3402C254.759 43.1724 254.12 42.3002 253.193 41.4085C251.54 39.8288 249.517 38.8674 247.107 38.5198C245.939 38.351 245.706 38.301 239.73 38.2906L231.593 38.2906Z" fill="url(#RadialGradient)" fill-rule="nonzero" opacity="1" stroke="none"/>
<path d="M231.593 38.2906C221.156 38.2906 218.104 38.3013 217.51 38.3506C215.368 38.5286 214.035 38.8659 212.583 39.5888C211.464 40.1445 210.582 40.7886 209.711 41.6915C208.125 43.3381 207.163 45.3639 206.815 47.7719C206.646 48.9409 206.597 49.1793 206.587 55.1505C206.583 57.1409 206.587 59.7604 206.587 63.274C206.587 73.7028 206.598 76.7522 206.648 77.3444C206.821 79.4286 207.148 80.7399 207.84 82.1743C209.163 84.9199 211.69 86.981 214.666 87.7501C215.697 88.0155 216.835 88.1616 218.296 88.2308C218.915 88.2577 225.226 88.277 231.54 88.277C237.854 88.277 244.168 88.2693 244.772 88.2385C246.464 88.1589 247.446 88.027 248.533 87.7463C251.528 86.9734 254.009 84.943 255.358 82.1589C256.037 80.7591 256.381 79.3979 256.537 77.4225C256.571 76.9918 256.585 70.125 256.585 63.2674C256.585 56.4087 256.57 49.5546 256.536 49.1239C256.378 47.1166 256.034 45.7669 255.333 44.3402C254.759 43.1724 254.12 42.3002 253.193 41.4085C251.54 39.8288 249.517 38.8674 247.107 38.5198C245.939 38.351 245.706 38.301 239.73 38.2906L231.593 38.2906Z" fill="url(#RadialGradient_2)" fill-rule="nonzero" opacity="1" stroke="none"/>
<path d="M231.582 44.8278C226.569 44.8278 225.94 44.8497 223.971 44.9393C222.006 45.0293 220.665 45.3404 219.491 45.7969C218.277 46.2683 217.247 46.899 216.221 47.9253C215.194 48.9513 214.564 49.9811 214.091 51.1947C213.633 52.3687 213.322 53.7104 213.233 55.6746C213.145 57.6435 213.122 58.273 213.122 63.2859C213.122 68.2988 213.144 68.926 213.234 70.8948C213.324 72.8599 213.635 74.2011 214.091 75.3748C214.563 76.5888 215.194 77.6186 216.22 78.6445C217.246 79.6713 218.275 80.3035 219.489 80.7749C220.663 81.2314 222.005 81.5424 223.969 81.6324C225.938 81.722 226.567 81.7439 231.579 81.7439C236.593 81.7439 237.22 81.722 239.189 81.6324C241.154 81.5424 242.497 81.2314 243.671 80.7749C244.885 80.3035 245.913 79.6713 246.938 78.6445C247.965 77.6186 248.596 76.5888 249.069 75.3751C249.523 74.2011 249.834 72.8595 249.926 70.8952C250.015 68.9264 250.038 68.2988 250.038 63.2859C250.038 58.273 250.015 57.6439 249.926 55.675C249.834 53.71 249.523 52.3687 249.069 51.1951C248.596 49.9811 247.965 48.9513 246.938 47.9253C245.912 46.8986 244.885 46.2679 243.67 45.7969C242.493 45.3404 241.151 45.0293 239.186 44.9393C237.217 44.8497 236.59 44.8278 231.576 44.8278L231.582 44.8278ZM229.926 48.1541C230.417 48.1533 230.966 48.1541 231.582 48.1541C236.51 48.1541 237.094 48.1718 239.04 48.2602C240.84 48.3425 241.817 48.6433 242.467 48.8959C243.329 49.2304 243.943 49.6304 244.589 50.2764C245.235 50.9224 245.634 51.5377 245.97 52.3991C246.222 53.049 246.524 54.0257 246.605 55.8254C246.694 57.7711 246.713 58.3557 246.713 63.2817C246.713 68.2076 246.694 68.7922 246.605 70.7379C246.523 72.5376 246.222 73.5143 245.97 74.1642C245.635 75.0256 245.235 75.6389 244.589 76.2846C243.942 76.9306 243.329 77.3305 242.467 77.6651C241.818 77.9189 240.84 78.2188 239.04 78.3011C237.095 78.3896 236.51 78.4088 231.582 78.4088C226.653 78.4088 226.069 78.3896 224.123 78.3011C222.323 78.2181 221.347 77.9174 220.696 77.6647C219.834 77.3302 219.219 76.9302 218.573 76.2842C217.927 75.6382 217.527 75.0244 217.192 74.1627C216.939 73.5128 216.638 72.5361 216.556 70.7364C216.468 68.7906 216.45 68.2061 216.45 63.277C216.45 58.348 216.468 57.7665 216.556 55.8207C216.638 54.0211 216.939 53.0443 217.192 52.3937C217.526 51.5323 217.927 50.9171 218.573 50.271C219.219 49.625 219.834 49.2251 220.696 48.8897C221.346 48.6359 222.323 48.336 224.123 48.2533C225.826 48.1764 226.486 48.1533 229.926 48.1495L229.926 48.1541ZM241.435 51.2189C240.212 51.2189 239.22 52.2099 239.22 53.4331C239.22 54.656 240.212 55.6481 241.435 55.6481C242.657 55.6481 243.649 54.656 243.649 53.4331C243.649 52.2103 242.657 51.2182 241.435 51.2182L241.435 51.2189ZM231.582 53.8069C226.347 53.8069 222.103 58.0511 222.103 63.2859C222.103 68.5207 226.347 72.7629 231.582 72.7629C236.817 72.7629 241.059 68.5207 241.059 63.2859C241.059 58.0511 236.816 53.8069 231.581 53.8069L231.582 53.8069ZM231.582 57.1332C234.98 57.1332 237.734 59.8877 237.734 63.2859C237.734 66.6837 234.98 69.4386 231.582 69.4386C228.184 69.4386 225.429 66.6837 225.429 63.2859C225.429 59.8877 228.184 57.1332 231.582 57.1332Z" fill="#ffffff" fill-rule="nonzero" opacity="1" stroke="none"/>
</g>
<g opacity="1">
<path d="M239.608 127.205C236.122 129.775 231.068 131.146 226.717 131.146C220.616 131.146 215.123 128.89 210.968 125.136C210.641 124.841 210.934 124.439 211.326 124.669C215.81 127.278 221.355 128.848 227.082 128.848C230.945 128.848 235.195 128.049 239.102 126.39C239.692 126.139 240.186 126.777 239.608 127.205" fill="#ff9900" fill-rule="nonzero" opacity="1" stroke="none"/>
<path d="M241.058 125.546C240.614 124.977 238.112 125.277 236.989 125.411C236.647 125.452 236.595 125.155 236.903 124.941C238.895 123.538 242.165 123.943 242.547 124.413C242.928 124.886 242.447 128.163 240.575 129.728C240.288 129.968 240.013 129.84 240.141 129.522C240.562 128.472 241.505 126.118 241.058 125.546" fill="#ff9900" fill-rule="nonzero" opacity="1" stroke="none"/>
<path d="M237.067 115.039L237.067 113.676C237.067 113.47 237.224 113.331 237.412 113.331L243.516 113.331C243.712 113.331 243.868 113.472 243.868 113.676L243.868 114.843C243.866 115.039 243.701 115.295 243.409 115.7L240.246 120.216C241.421 120.187 242.662 120.362 243.727 120.963C243.968 121.099 244.033 121.297 244.051 121.493L244.051 122.948C244.051 123.146 243.832 123.379 243.602 123.259C241.724 122.274 239.23 122.167 237.153 123.269C236.942 123.384 236.72 123.154 236.72 122.956L236.72 121.574C236.72 121.352 236.722 120.973 236.944 120.636L240.609 115.381L237.42 115.381C237.224 115.381 237.067 115.243 237.067 115.039" fill="#ffffff" fill-rule="nonzero" opacity="1" stroke="none"/>
<path d="M214.802 123.546L212.945 123.546C212.767 123.533 212.626 123.4 212.613 123.23L212.613 113.7C212.613 113.509 212.773 113.357 212.971 113.357L214.703 113.357C214.883 113.365 215.027 113.504 215.04 113.676L215.04 114.922L215.074 114.922C215.525 113.718 216.374 113.156 217.518 113.156C218.68 113.156 219.406 113.718 219.929 114.922C220.378 113.718 221.399 113.156 222.494 113.156C223.272 113.156 224.123 113.478 224.643 114.198C225.231 115 225.111 116.165 225.111 117.186L225.108 123.201C225.108 123.392 224.949 123.546 224.75 123.546L222.896 123.546C222.71 123.533 222.562 123.384 222.562 123.201L222.562 118.15C222.562 117.748 222.598 116.745 222.509 116.364C222.371 115.724 221.956 115.543 221.418 115.543C220.968 115.543 220.498 115.844 220.308 116.324C220.117 116.805 220.135 117.609 220.135 118.15L220.135 123.201C220.135 123.392 219.976 123.546 219.777 123.546L217.923 123.546C217.735 123.533 217.589 123.384 217.589 123.201L217.586 118.15C217.586 117.087 217.761 115.523 216.442 115.523C215.108 115.523 215.16 117.048 215.16 118.15L215.16 123.201C215.16 123.392 215 123.546 214.802 123.546" fill="#ffffff" fill-rule="nonzero" opacity="1" stroke="none"/>
<path d="M249.123 113.156C251.879 113.156 253.37 115.523 253.37 118.531C253.37 121.438 251.722 123.744 249.123 123.744C246.417 123.744 244.944 121.378 244.944 118.429C244.944 115.462 246.436 113.156 249.123 113.156M249.139 115.102C247.77 115.102 247.684 116.967 247.684 118.129C247.684 119.294 247.666 121.78 249.123 121.78C250.562 121.78 250.63 119.774 250.63 118.552C250.63 117.748 250.596 116.787 250.353 116.024C250.144 115.361 249.729 115.102 249.139 115.102" fill="#ffffff" fill-rule="nonzero" opacity="1" stroke="none"/>
<path d="M256.943 123.546L255.094 123.546C254.908 123.533 254.759 123.384 254.759 123.201L254.757 113.668C254.772 113.493 254.926 113.357 255.115 113.357L256.836 113.357C256.998 113.365 257.131 113.475 257.167 113.624L257.167 115.081L257.201 115.081C257.721 113.778 258.45 113.156 259.732 113.156C260.565 113.156 261.378 113.457 261.9 114.279C262.386 115.042 262.386 116.324 262.386 117.246L262.386 123.246C262.365 123.413 262.211 123.546 262.028 123.546L260.166 123.546C259.996 123.533 259.855 123.407 259.837 123.246L259.837 118.069C259.837 117.027 259.957 115.502 258.674 115.502C258.223 115.502 257.807 115.805 257.601 116.264C257.34 116.847 257.306 117.427 257.306 118.069L257.306 123.201C257.303 123.392 257.141 123.546 256.943 123.546" fill="#ffffff" fill-rule="nonzero" opacity="1" stroke="none"/>
<path d="M232.202 118.994L232.202 118.591C230.859 118.591 229.441 118.879 229.441 120.461C229.441 121.263 229.856 121.806 230.569 121.806C231.092 121.806 231.559 121.485 231.854 120.963C232.22 120.32 232.202 119.717 232.202 118.994M234.074 123.52C233.951 123.629 233.774 123.637 233.635 123.564C233.019 123.052 232.909 122.815 232.57 122.326C231.551 123.366 230.83 123.676 229.509 123.676C227.947 123.676 226.73 122.713 226.73 120.783C226.73 119.276 227.547 118.249 228.71 117.748C229.718 117.304 231.125 117.225 232.202 117.103L232.202 116.862C232.202 116.421 232.235 115.899 231.977 115.517C231.75 115.175 231.316 115.034 230.935 115.034C230.227 115.034 229.595 115.397 229.441 116.149C229.41 116.317 229.287 116.481 229.12 116.489L227.318 116.296C227.166 116.262 226.999 116.139 227.041 115.906C227.456 113.723 229.428 113.065 231.193 113.065C232.097 113.065 233.278 113.305 233.991 113.989C234.894 114.833 234.808 115.959 234.808 117.184L234.808 120.077C234.808 120.947 235.168 121.328 235.508 121.799C235.628 121.966 235.654 122.167 235.503 122.292C235.124 122.608 234.45 123.196 234.079 123.525L234.074 123.52" fill="#ffffff" fill-rule="nonzero" opacity="1" stroke="none"/>
<path d="M207.857 118.994L207.857 118.591C206.515 118.591 205.097 118.879 205.097 120.461C205.097 121.263 205.512 121.806 206.225 121.806C206.747 121.806 207.215 121.485 207.51 120.963C207.876 120.32 207.857 119.717 207.857 118.994M209.73 123.52C209.607 123.629 209.43 123.637 209.291 123.564C208.675 123.052 208.565 122.815 208.226 122.326C207.207 123.366 206.486 123.676 205.165 123.676C203.603 123.676 202.386 122.713 202.386 120.783C202.386 119.276 203.203 118.249 204.365 117.748C205.374 117.304 206.781 117.225 207.857 117.103L207.857 116.862C207.857 116.421 207.891 115.899 207.633 115.517C207.405 115.175 206.972 115.034 206.591 115.034C205.883 115.034 205.251 115.397 205.097 116.149C205.065 116.317 204.943 116.481 204.775 116.489L202.973 116.296C202.822 116.262 202.655 116.139 202.696 115.906C203.112 113.723 205.084 113.065 206.849 113.065C207.753 113.065 208.933 113.305 209.646 113.989C210.55 114.833 210.464 115.959 210.464 117.184L210.464 120.077C210.464 120.947 210.824 121.328 211.164 121.799C211.284 121.966 211.31 122.167 211.159 122.292C210.78 122.608 210.106 123.196 209.735 123.525L209.73 123.52" fill="#ffffff" fill-rule="nonzero" opacity="1" stroke="none"/>
</g>
<g opacity="1">
<path d="M372.961 111.405C372.947 111.306 372.861 111.251 372.789 111.245C372.718 111.239 371.321 111.218 371.321 111.218C371.321 111.218 370.154 110.084 370.038 109.969C369.923 109.854 369.698 109.888 369.61 109.914C369.609 109.915 369.391 109.982 369.024 110.096C368.962 109.897 368.872 109.652 368.743 109.406C368.327 108.613 367.718 108.193 366.982 108.192C366.981 108.192 366.981 108.192 366.98 108.192C366.928 108.192 366.878 108.197 366.827 108.201C366.805 108.175 366.783 108.15 366.76 108.125C366.44 107.782 366.029 107.615 365.537 107.63C364.586 107.657 363.64 108.343 362.873 109.562C362.333 110.419 361.922 111.497 361.806 112.331C360.715 112.669 359.952 112.905 359.935 112.911C359.384 113.084 359.367 113.101 359.295 113.62C359.242 114.012 357.801 125.154 357.801 125.154L369.876 127.243L375.11 125.942C375.11 125.942 372.975 111.505 372.961 111.405ZM368.419 110.283C368.141 110.369 367.825 110.467 367.482 110.573C367.475 110.092 367.418 109.423 367.193 108.845C367.914 108.981 368.269 109.797 368.419 110.283ZM366.85 110.769C366.217 110.965 365.527 111.179 364.834 111.393C365.029 110.647 365.398 109.905 365.852 109.418C366.021 109.236 366.257 109.035 366.537 108.919C366.799 109.468 366.857 110.244 366.85 110.769ZM365.556 108.262C365.779 108.257 365.966 108.306 366.127 108.411C365.87 108.545 365.622 108.736 365.389 108.986C364.786 109.634 364.323 110.639 364.139 111.608C363.563 111.786 363.001 111.961 362.483 112.121C362.81 110.595 364.089 108.304 365.556 108.262Z" fill="#95bf47" fill-rule="nonzero" opacity="1" stroke="none"/>
<path d="M372.79 111.246C372.718 111.24 371.322 111.219 371.322 111.219C371.322 111.219 370.154 110.085 370.039 109.969C369.996 109.926 369.938 109.904 369.877 109.895L369.877 127.242L375.11 125.942C375.11 125.942 372.975 111.505 372.962 111.406C372.948 111.307 372.861 111.252 372.79 111.246Z" fill="#5e8e3e" fill-rule="nonzero" opacity="1" stroke="none"/>
<path d="M366.976 113.937L366.368 116.211C366.368 116.211 365.69 115.902 364.886 115.953C363.708 116.028 363.695 116.771 363.707 116.958C363.771 117.975 366.447 118.197 366.597 120.579C366.715 122.453 365.603 123.735 364 123.836C362.077 123.958 361.018 122.823 361.018 122.823L361.425 121.089C361.425 121.089 362.491 121.894 363.345 121.84C363.902 121.804 364.101 121.351 364.081 121.031C363.997 119.704 361.818 119.782 361.681 117.602C361.565 115.768 362.769 113.909 365.428 113.742C366.452 113.676 366.976 113.937 366.976 113.937Z" fill="#ffffff" fill-rule="nonzero" opacity="1" stroke="none"/>
<path d="M382.002 118.699C381.4 118.372 381.091 118.097 381.091 117.719C381.091 117.237 381.52 116.928 382.191 116.928C382.972 116.928 383.67 117.254 383.67 117.254L384.22 115.569C384.22 115.569 383.714 115.174 382.225 115.174C380.154 115.174 378.718 116.36 378.718 118.028C378.718 118.973 379.389 119.696 380.283 120.211C381.005 120.623 381.263 120.916 381.263 121.346C381.263 121.792 380.902 122.153 380.232 122.153C379.233 122.153 378.289 121.637 378.289 121.637L377.705 123.323C377.705 123.323 378.576 123.907 380.043 123.907C382.175 123.907 383.705 122.858 383.705 120.967C383.704 119.954 382.931 119.231 382.002 118.699Z" fill="#ffffff" fill-rule="nonzero" opacity="1" stroke="none"/>
<path d="M390.495 115.157C389.446 115.157 388.621 115.656 387.985 116.412L387.951 116.395L388.862 111.633L386.489 111.633L384.186 123.753L386.558 123.753L387.349 119.61C387.658 118.045 388.466 117.083 389.223 117.083C389.756 117.083 389.962 117.444 389.962 117.96C389.962 118.286 389.928 118.682 389.859 119.009L388.965 123.753L391.338 123.753L392.266 118.854C392.37 118.338 392.439 117.719 392.439 117.306C392.438 115.965 391.733 115.157 390.495 115.157Z" fill="#ffffff" fill-rule="nonzero" opacity="1" stroke="none"/>
<path d="M397.801 115.157C394.947 115.157 393.057 117.736 393.057 120.607C393.057 122.446 394.191 123.924 396.323 123.924C399.125 123.924 401.016 121.415 401.016 118.475C401.016 116.773 400.019 115.157 397.801 115.157ZM396.632 122.103C395.824 122.103 395.48 121.415 395.48 120.555C395.48 119.197 396.185 116.98 397.475 116.98C398.317 116.98 398.592 117.702 398.592 118.407C398.592 119.868 397.888 122.103 396.632 122.103Z" fill="#ffffff" fill-rule="nonzero" opacity="1" stroke="none"/>
<path d="M407.085 115.157C405.484 115.157 404.575 116.567 404.575 116.567L404.541 116.567L404.678 115.295L402.581 115.295C402.478 116.154 402.288 117.461 402.1 118.441L400.449 127.122L402.822 127.122L403.475 123.615L403.527 123.615C403.527 123.615 404.013 123.924 404.919 123.924C407.704 123.924 409.526 121.071 409.526 118.182C409.526 116.584 408.821 115.157 407.085 115.157ZM404.816 122.137C404.2 122.137 403.835 121.793 403.835 121.793L404.231 119.575C404.506 118.097 405.28 117.117 406.105 117.117C406.827 117.117 407.05 117.787 407.05 118.423C407.05 119.954 406.139 122.137 404.816 122.137Z" fill="#ffffff" fill-rule="nonzero" opacity="1" stroke="none"/>
<path d="M412.913 111.753C412.157 111.753 411.555 112.355 411.555 113.128C411.555 113.833 412.002 114.315 412.672 114.315L412.707 114.315C413.446 114.315 414.082 113.816 414.099 112.939C414.099 112.252 413.635 111.753 412.913 111.753Z" fill="#ffffff" fill-rule="nonzero" opacity="1" stroke="none"/>
<path d="M409.595 123.753L411.967 123.753L413.584 115.346L411.194 115.346L409.595 123.753Z" fill="#ffffff" fill-rule="nonzero" opacity="1" stroke="none"/>
<path d="M419.618 115.329L417.968 115.329L418.053 114.934C418.191 114.126 418.672 113.403 419.463 113.403C419.885 113.403 420.219 113.524 420.219 113.524L420.683 111.667C420.683 111.667 420.271 111.461 419.394 111.461C418.551 111.461 417.71 111.702 417.073 112.252C416.265 112.939 415.887 113.936 415.698 114.934L415.63 115.329L414.529 115.329L414.185 117.117L415.286 117.117L414.031 123.753L416.403 123.753L417.658 117.117L419.291 117.117L419.618 115.329Z" fill="#ffffff" fill-rule="nonzero" opacity="1" stroke="none"/>
<path d="M425.325 115.347C425.325 115.347 423.842 119.083 423.176 121.123L423.142 121.123C423.097 120.466 422.557 115.347 422.557 115.347L420.064 115.347L421.492 123.065C421.527 123.237 421.509 123.34 421.44 123.461C421.165 123.993 420.701 124.509 420.151 124.888C419.704 125.214 419.205 125.42 418.81 125.558L419.463 127.57C419.945 127.467 420.941 127.071 421.784 126.28C422.867 125.266 423.864 123.701 424.895 121.569L427.801 115.346L425.325 115.346L425.325 115.347Z" fill="#ffffff" fill-rule="nonzero" opacity="1" stroke="none"/>
</g>
<g opacity="1">
<path d="M291.672 90.7678L332.371 90.7678C334.947 90.7678 337.032 92.8527 337.032 95.4285L337.032 110.964C337.032 113.54 334.947 115.625 332.371 115.625L317.776 115.625L319.779 120.531L310.969 115.625L291.693 115.625C289.117 115.625 287.032 113.54 287.032 110.964L287.032 95.4285C287.012 92.8732 289.097 90.7678 291.672 90.7678L291.672 90.7678Z" fill="#7f54b3" fill-rule="nonzero" opacity="1" stroke="none"/>
<path d="M289.879 95.0158C290.163 94.6296 290.59 94.4264 291.159 94.3857C292.196 94.3044 292.785 94.7922 292.928 95.8491C293.558 100.097 294.249 103.695 294.981 106.642L299.432 98.1663C299.838 97.3939 300.346 96.9874 300.956 96.9468C301.851 96.8858 302.399 97.4549 302.623 98.6541C303.131 101.357 303.781 103.654 304.554 105.605C305.082 100.443 305.977 96.7233 307.237 94.4264C307.542 93.8573 307.989 93.5728 308.578 93.5321C309.046 93.4914 309.473 93.6337 309.859 93.9386C310.245 94.2435 310.448 94.6296 310.489 95.0971C310.509 95.463 310.448 95.7678 310.286 96.0727C309.493 97.5361 308.842 99.9956 308.314 103.41C307.806 106.723 307.623 109.304 307.745 111.154C307.786 111.662 307.704 112.109 307.501 112.495C307.257 112.943 306.891 113.186 306.424 113.227C305.895 113.268 305.347 113.024 304.818 112.475C302.928 110.544 301.424 107.658 300.326 103.816C299.005 106.418 298.03 108.369 297.4 109.67C296.2 111.967 295.184 113.146 294.33 113.207C293.782 113.247 293.314 112.78 292.908 111.804C291.871 109.142 290.753 103.999 289.554 96.3775C289.473 95.8491 289.595 95.3816 289.879 95.0158L289.879 95.0158ZM333.559 98.2068C332.827 96.9263 331.75 96.1539 330.307 95.849C329.92 95.7677 329.555 95.727 329.209 95.727C327.258 95.727 325.672 96.7433 324.433 98.7759C323.376 100.503 322.847 102.414 322.847 104.507C322.847 106.073 323.172 107.414 323.823 108.532C324.555 109.812 325.632 110.585 327.075 110.89C327.461 110.971 327.827 111.012 328.172 111.012C330.144 111.012 331.729 109.995 332.949 107.963C334.006 106.215 334.534 104.304 334.534 102.211C334.554 100.626 334.209 99.3045 333.559 98.2068ZM330.998 103.837C330.713 105.178 330.205 106.174 329.453 106.845C328.863 107.374 328.315 107.597 327.807 107.495C327.319 107.394 326.912 106.967 326.607 106.174C326.363 105.544 326.241 104.914 326.241 104.325C326.241 103.817 326.282 103.308 326.384 102.841C326.567 102.008 326.912 101.195 327.461 100.422C328.132 99.4263 328.843 99.0198 329.575 99.1621C330.063 99.2638 330.469 99.6906 330.774 100.483C331.018 101.113 331.14 101.743 331.14 102.333C331.14 102.861 331.099 103.369 330.998 103.837L330.998 103.837ZM320.835 98.2068C320.103 96.9263 319.006 96.1539 317.583 95.849C317.197 95.7677 316.831 95.727 316.485 95.727C314.534 95.727 312.949 96.7433 311.709 98.7759C310.652 100.503 310.124 102.414 310.124 104.507C310.124 106.073 310.449 107.414 311.099 108.532C311.831 109.812 312.908 110.585 314.351 110.89C314.737 110.971 315.103 111.012 315.449 111.012C317.42 111.012 319.006 109.995 320.225 107.963C321.282 106.215 321.811 104.304 321.811 102.211C321.811 100.626 321.485 99.3045 320.835 98.2068ZM318.254 103.837C317.969 105.178 317.461 106.174 316.709 106.845C316.12 107.374 315.571 107.597 315.063 107.495C314.575 107.394 314.168 106.967 313.863 106.174C313.62 105.544 313.498 104.914 313.498 104.325C313.498 103.817 313.538 103.308 313.64 102.841C313.823 102.008 314.168 101.195 314.717 100.422C315.388 99.4263 316.099 99.0198 316.831 99.1621C317.319 99.2638 317.725 99.6906 318.03 100.483C318.274 101.113 318.396 101.743 318.396 102.333C318.416 102.861 318.355 103.369 318.254 103.837L318.254 103.837Z" fill="#ffffff" fill-rule="nonzero" opacity="1" stroke="none"/>
</g>
<g opacity="1">
<path d="M165.079 129.582C164.114 130.065 163.696 130.965 163.696 133.409C163.696 133.409 164.178 132.927 164.95 132.637C165.513 132.428 165.915 132.155 166.204 131.946C167.04 131.319 167.169 130.563 167.169 129.245C167.153 129.245 165.834 129.164 165.079 129.582Z" fill="#fbbd71" fill-rule="nonzero" opacity="1" stroke="none"/>
<path d="M159.178 130.145C158.342 130.837 158.133 132.026 158.133 132.026L155.432 142.38L153.214 133.907C153.005 133.007 152.587 131.898 151.96 131.126C151.188 130.145 149.58 130.081 149.387 130.081C149.243 130.081 147.651 130.145 146.815 131.126C146.188 131.898 145.77 133.007 145.561 133.907L143.471 142.38L140.77 132.026C140.77 132.026 140.561 130.917 139.725 130.145C138.407 128.955 136.461 129.245 136.461 129.245L141.606 148.618C141.606 148.618 143.278 148.763 144.114 148.345C145.223 147.782 145.786 147.38 146.413 144.727C147.04 142.364 148.712 135.483 148.841 135C148.905 134.791 149.05 134.164 149.468 134.164C149.886 134.164 150.03 134.727 150.095 135C150.24 135.483 151.895 142.364 152.522 144.727C153.214 147.364 153.696 147.782 154.821 148.345C155.658 148.763 157.33 148.618 157.33 148.618L162.442 129.245C162.442 129.245 160.497 128.972 159.178 130.145Z" fill="#ffffff" fill-rule="nonzero" opacity="1" stroke="none"/>
<path d="M167.153 132.364C167.153 132.364 166.799 132.846 166.108 133.264C165.625 133.537 165.207 133.682 164.725 133.955C163.889 134.373 163.68 134.791 163.68 135.418L163.68 135.628L163.68 136.673L163.68 136.673L163.68 136.882L163.68 148.554C163.68 148.554 164.998 148.698 165.834 148.28C166.944 147.718 167.153 147.171 167.153 144.808L167.153 133.136L167.153 133.136L167.153 132.364L167.153 132.364Z" fill="#ffffff" fill-rule="nonzero" opacity="1" stroke="none"/>
<path d="M179.934 138.972L186.461 129.309C186.461 129.309 183.76 128.827 182.362 130.081C181.461 130.853 180.561 132.3 180.561 132.3L178.198 135.772C178.053 135.981 177.924 136.126 177.715 136.126C177.506 136.126 177.297 135.917 177.233 135.772L174.87 132.3C174.87 132.3 173.905 130.917 173.069 130.081C171.686 128.827 168.969 129.309 168.969 129.309L175.288 138.955L168.825 148.602C168.825 148.602 171.67 148.955 173.069 147.701C173.969 146.93 174.805 145.611 174.805 145.611L177.169 142.139C177.313 141.93 177.442 141.785 177.651 141.785C177.86 141.785 178.069 141.994 178.133 142.139L180.497 145.611C180.497 145.611 181.397 146.93 182.233 147.701C183.616 148.955 186.397 148.602 186.397 148.602L179.934 138.972Z" fill="#ffffff" fill-rule="nonzero" opacity="1" stroke="none"/>
</g>
<g opacity="1">
<path d="M344.838 154.115L324.818 165.672L324.818 188.754L330.533 192.057L330.493 168.97L344.798 160.713L359.103 168.97L359.103 192.047L364.818 188.754L364.818 165.651L344.838 154.115Z" fill="#f26322" fill-rule="nonzero" opacity="1" stroke="none"/>
<path d="M347.673 192.052L344.818 193.712L341.948 192.068L341.948 168.97L336.238 172.269L336.248 195.356L344.813 200.305L353.388 195.356L353.388 172.269L347.673 168.97L347.673 192.052Z" fill="#f26322" fill-rule="nonzero" opacity="1" stroke="none"/>
</g>
<path d="M170.883 225.508C170.883 226.063 170.432 226.514 169.876 226.514C169.32 226.514 168.87 226.063 168.87 225.508L168.87 220.769C168.87 220.213 169.32 219.763 169.876 219.763C170.432 219.763 170.883 220.213 170.883 220.769L170.883 225.508ZM171.176 217.342C171.176 218.06 170.594 218.641 169.876 218.641C169.158 218.641 168.577 218.06 168.577 217.342C168.577 216.624 169.158 216.042 169.876 216.042C170.594 216.042 171.176 216.624 171.176 217.342ZM174.01 220.721L174.01 220.885C174.252 220.492 174.596 220.188 175.04 219.975C175.483 219.761 175.994 219.654 176.572 219.654C176.999 219.654 177.345 219.732 177.609 219.887C177.872 220.042 178.075 220.243 178.218 220.49C178.36 220.737 178.454 221.007 178.5 221.3C178.546 221.593 178.569 221.878 178.569 222.154L178.569 226.493L176.56 226.493L176.56 222.669C176.56 222.234 176.478 221.918 176.315 221.721C176.151 221.524 175.936 221.425 175.668 221.425C175.525 221.425 175.381 221.455 175.234 221.513C175.088 221.572 174.949 221.654 174.82 221.758C174.69 221.863 174.571 221.987 174.462 222.129C174.353 222.272 174.269 222.426 174.21 222.594L174.21 226.493L172.201 226.493L172.201 220.695L172.201 220.673C172.207 220.188 172.592 219.797 173.074 219.78L173.138 219.78C173.611 219.796 173.991 220.175 174.01 220.647L174.01 220.721ZM137.477 221.771C137.335 221.348 137.138 220.982 136.887 220.672C136.635 220.362 136.336 220.117 135.989 219.937C135.641 219.757 135.258 219.667 134.839 219.667C134.337 219.667 133.903 219.773 133.539 219.987C133.175 220.201 132.884 220.496 132.666 220.872L132.666 217.055L132.665 217.055C132.665 217.052 132.665 217.049 132.665 217.046C132.665 216.492 132.216 216.042 131.661 216.042C131.107 216.042 130.657 216.492 130.657 217.046C130.657 217.049 130.658 217.052 130.658 217.055L130.656 217.055L130.656 226.506L130.713 226.506L130.713 226.507L132.654 226.507L132.654 225.644C132.835 225.865 133.049 226.049 133.3 226.193C133.673 226.406 134.111 226.513 134.613 226.513C135.048 226.513 135.455 226.427 135.831 226.255C136.208 226.084 136.535 225.845 136.811 225.539C137.088 225.234 137.303 224.873 137.458 224.459C137.613 224.044 137.691 223.598 137.691 223.121C137.691 222.644 137.619 222.194 137.477 221.771ZM135.517 223.793C135.442 223.998 135.335 224.176 135.197 224.327C135.059 224.478 134.891 224.597 134.695 224.685C134.498 224.773 134.282 224.817 134.048 224.817C133.771 224.817 133.508 224.735 133.256 224.572C133.005 224.409 132.808 224.185 132.666 223.9L132.666 222.518C132.808 222.192 133.011 221.92 133.275 221.702C133.539 221.484 133.83 221.375 134.148 221.375C134.366 221.375 134.565 221.421 134.745 221.513C134.925 221.605 135.082 221.731 135.216 221.89C135.35 222.049 135.452 222.236 135.524 222.449C135.595 222.663 135.631 222.887 135.631 223.121C135.631 223.364 135.593 223.588 135.517 223.793ZM148.142 220.733L148.142 220.898C148.385 220.504 148.728 220.201 149.172 219.987C149.616 219.773 150.127 219.667 150.705 219.667C151.132 219.667 151.477 219.744 151.741 219.899C152.005 220.054 152.208 220.255 152.35 220.502C152.493 220.749 152.587 221.019 152.633 221.312C152.679 221.606 152.702 221.89 152.702 222.166L152.702 226.506L150.692 226.506L150.692 222.681C150.692 222.246 150.61 221.93 150.447 221.733C150.284 221.536 150.068 221.438 149.8 221.438C149.658 221.438 149.513 221.467 149.367 221.526C149.22 221.584 149.082 221.666 148.952 221.771C148.822 221.876 148.703 221.999 148.594 222.141C148.485 222.284 148.401 222.439 148.343 222.606L148.343 226.506L146.333 226.506L146.333 220.708L146.333 220.685C146.339 220.201 146.725 219.809 147.206 219.792L147.27 219.792C147.743 219.809 148.123 220.187 148.142 220.66L148.142 220.733ZM128.835 220.691C128.533 220.376 128.165 220.127 127.729 219.943C127.294 219.759 126.795 219.667 126.234 219.667C125.673 219.667 125.173 219.759 124.733 219.943C124.294 220.127 123.923 220.379 123.622 220.697C123.32 221.015 123.09 221.386 122.931 221.809C122.771 222.231 122.692 222.681 122.692 223.159C122.692 223.544 122.752 223.915 122.872 224.271C122.774 224.415 122.642 224.537 122.474 224.635C122.264 224.756 122.034 224.817 121.783 224.817C121.582 224.817 121.391 224.775 121.211 224.691C121.031 224.608 120.874 224.49 120.74 224.34C120.68 224.273 120.579 224.131 120.579 223.605L120.579 217.051C120.58 216.492 120.13 216.042 119.576 216.042C119.023 216.042 118.574 216.49 118.572 217.042L118.569 224.148C118.569 224.742 118.929 225.21 119.189 225.476C119.494 225.79 119.867 226.042 120.307 226.23C120.452 226.293 120.604 226.344 120.762 226.385C121.081 226.47 121.425 226.513 121.795 226.513C122.557 226.513 123.204 226.35 123.736 226.023C123.834 225.963 123.925 225.899 124.012 225.833C124.232 225.993 124.475 226.132 124.746 226.243C125.185 226.423 125.682 226.513 126.234 226.513C126.996 226.513 127.65 226.35 128.194 226.023C128.738 225.696 129.14 225.274 129.4 224.754L127.692 224.277C127.637 224.422 127.55 224.549 127.431 224.658C127.35 224.732 127.255 224.797 127.145 224.855C126.873 224.997 126.59 225.068 126.297 225.068C125.929 225.068 125.6 224.953 125.311 224.723C125.022 224.493 124.861 224.155 124.827 223.712L129.701 223.712C129.718 223.628 129.731 223.529 129.739 223.416C129.747 223.303 129.752 223.188 129.752 223.071C129.752 222.619 129.674 222.187 129.519 221.777C129.364 221.367 129.136 221.005 128.835 220.691ZM124.79 222.468C124.832 222.058 124.98 221.729 125.236 221.482C125.491 221.235 125.816 221.111 126.209 221.111C126.594 221.111 126.917 221.233 127.176 221.476C127.436 221.719 127.587 222.049 127.629 222.468L124.79 222.468ZM167.55 221.796C167.391 221.381 167.16 221.017 166.859 220.703C166.558 220.389 166.189 220.138 165.754 219.949C165.318 219.761 164.82 219.667 164.259 219.667C163.698 219.667 163.197 219.761 162.758 219.949C162.318 220.138 161.947 220.389 161.646 220.703C161.344 221.017 161.116 221.381 160.961 221.796C160.806 222.21 160.729 222.644 160.729 223.096C160.729 223.548 160.806 223.982 160.961 224.396C161.116 224.811 161.344 225.175 161.646 225.489C161.947 225.803 162.318 226.052 162.758 226.237C163.197 226.421 163.698 226.513 164.259 226.513C164.82 226.513 165.32 226.421 165.76 226.237C166.2 226.052 166.57 225.803 166.872 225.489C167.173 225.175 167.401 224.811 167.556 224.396C167.711 223.982 167.789 223.548 167.789 223.096C167.789 222.644 167.709 222.21 167.55 221.796ZM165.603 223.793C165.527 224.007 165.425 224.189 165.295 224.34C165.165 224.49 165.012 224.608 164.837 224.692C164.661 224.775 164.468 224.817 164.259 224.817C163.832 224.817 163.48 224.66 163.203 224.346C162.927 224.032 162.789 223.615 162.789 223.096C162.789 222.845 162.827 222.613 162.902 222.399C162.977 222.185 163.08 222.003 163.21 221.852C163.34 221.702 163.494 221.584 163.675 221.501C163.855 221.417 164.049 221.375 164.259 221.375C164.677 221.375 165.025 221.532 165.301 221.846C165.578 222.16 165.716 222.577 165.716 223.096C165.716 223.347 165.678 223.58 165.603 223.793ZM144.436 220.703C144.135 220.389 143.766 220.138 143.331 219.949C142.895 219.761 142.397 219.667 141.836 219.667C141.275 219.667 140.775 219.761 140.335 219.949C139.895 220.138 139.525 220.389 139.223 220.703C138.922 221.017 138.693 221.381 138.538 221.796C138.383 222.21 138.306 222.644 138.306 223.096C138.306 223.548 138.383 223.982 138.538 224.396C138.693 224.811 138.922 225.175 139.223 225.489C139.525 225.803 139.895 226.052 140.335 226.237C140.775 226.421 141.275 226.513 141.836 226.513C142.397 226.513 142.898 226.421 143.337 226.237C143.777 226.052 144.147 225.803 144.449 225.489C144.75 225.175 144.978 224.811 145.133 224.396C145.288 223.982 145.366 223.548 145.366 223.096C145.366 222.644 145.286 222.21 145.127 221.796C144.968 221.381 144.738 221.017 144.436 220.703ZM143.18 223.793C143.105 224.007 143.002 224.189 142.872 224.34C142.742 224.49 142.59 224.608 142.414 224.692C142.238 224.775 142.045 224.817 141.836 224.817C141.409 224.817 141.057 224.66 140.781 224.346C140.504 224.032 140.366 223.615 140.366 223.096C140.366 222.845 140.404 222.613 140.479 222.399C140.555 222.185 140.657 222.003 140.787 221.852C140.917 221.702 141.072 221.584 141.252 221.501C141.432 221.417 141.627 221.375 141.836 221.375C142.255 221.375 142.602 221.532 142.879 221.846C143.155 222.16 143.293 222.577 143.293 223.096C143.293 223.347 143.255 223.58 143.18 223.793ZM157.852 224.635C157.643 224.757 157.413 224.817 157.161 224.817C156.96 224.817 156.77 224.775 156.59 224.692C156.41 224.608 156.252 224.49 156.119 224.34C155.985 224.189 155.88 224.007 155.805 223.793C155.729 223.58 155.692 223.343 155.692 223.084C155.692 222.564 155.832 222.15 156.112 221.84C156.393 221.53 156.742 221.375 157.161 221.375C157.664 221.375 158.045 221.584 158.304 222.003L160.264 221.413C160.004 220.894 159.615 220.473 159.096 220.15C158.577 219.828 157.936 219.667 157.174 219.667C156.613 219.667 156.112 219.759 155.673 219.943C155.233 220.127 154.863 220.377 154.561 220.691C154.259 221.005 154.029 221.369 153.87 221.783C153.711 222.198 153.631 222.631 153.631 223.084C153.631 223.536 153.711 223.969 153.87 224.384C154.029 224.798 154.261 225.163 154.567 225.477C154.873 225.791 155.246 226.042 155.685 226.23C156.125 226.419 156.621 226.513 157.174 226.513C157.936 226.513 158.583 226.35 159.115 226.023C159.646 225.696 160.034 225.278 160.277 224.767L158.317 224.164C158.217 224.357 158.061 224.514 157.852 224.635Z" fill="#f56b2a" fill-rule="evenodd" opacity="1" stroke="none"/>
<g opacity="1">
<path d="M280.639 159.735C279.024 159.735 277.903 160.064 277.057 160.687C276.211 161.31 275.752 162.13 275.568 163.147C275.488 163.59 275.483 164.068 275.539 164.44C275.6 164.848 275.775 165.176 276.026 165.428C275.76 165.607 275.527 165.823 275.327 166.073C275.127 166.325 274.998 166.619 274.937 166.954C274.883 167.253 274.902 167.561 274.993 167.879C275.084 168.196 275.28 168.444 275.58 168.624C275.132 168.924 274.782 169.235 274.557 169.576C274.291 169.98 274.159 170.352 274.082 170.778C273.912 171.724 274.161 172.485 274.865 172.988C275.57 173.49 276.693 173.742 278.235 173.742C281.465 173.742 283.074 172.73 283.425 170.778C283.499 170.37 283.519 169.904 283.407 169.549C283.313 169.255 283.113 169.004 282.812 168.795C282.51 168.585 282.079 168.381 281.553 168.22C281.027 168.058 280.323 167.899 279.553 167.726C278.883 167.576 277.781 167.295 277.781 167.295C277.567 167.247 277.43 167.187 277.369 167.116C277.308 167.044 277.291 166.936 277.317 166.792C277.332 166.709 277.364 166.634 277.413 166.568C277.462 166.502 277.532 166.337 277.65 166.379C277.873 166.46 278.114 166.545 278.356 166.586C278.741 166.652 279.093 166.649 279.525 166.649C280.98 166.649 281.952 166.418 282.843 165.886C283.735 165.353 284.279 164.517 284.498 163.346C284.551 163.058 284.563 162.745 284.53 162.502C284.495 162.25 284.434 162.036 284.411 161.8L284.962 161.638C285.08 161.604 285.17 161.561 285.234 161.513C285.298 161.465 285.343 161.376 285.366 161.244L285.55 160.202C285.573 160.07 285.55 159.959 285.481 159.87C285.411 159.78 285.307 159.735 285.172 159.735L280.639 159.735ZM280.334 161.854C280.988 161.854 281.368 161.964 281.526 162.223C281.758 162.604 281.733 162.918 281.667 163.291C281.599 163.675 281.432 163.98 281.169 164.207C280.906 164.434 280.502 164.547 279.848 164.547C279.491 164.547 279.21 164.512 279.008 164.44C278.805 164.369 278.65 164.275 278.551 164.153C278.307 163.852 278.361 163.466 278.418 163.147C278.484 162.776 278.658 162.468 278.936 162.223C279.214 161.978 279.68 161.854 280.334 161.854L280.334 161.854ZM278.717 169.719C279.121 169.807 279.437 169.9 279.671 169.971C279.904 170.043 280.081 170.117 280.205 170.186C280.467 170.332 280.47 170.562 280.428 170.797C280.405 170.929 280.361 171.069 280.297 171.184C280.234 171.297 280.13 171.396 279.985 171.48C279.841 171.563 279.647 171.626 279.405 171.668C279.163 171.71 278.851 171.731 278.469 171.731C277.754 171.731 277.371 171.638 277.14 171.489C276.907 171.339 276.816 171.108 276.876 170.797C276.933 170.499 276.997 170.171 277.135 169.926C277.232 169.752 277.342 169.552 277.492 169.432C277.931 169.528 278.278 169.624 278.717 169.719Z" fill="#e00034" fill-rule="nonzero" opacity="1" stroke="none"/>
<path d="M271.199 159.573C270.445 159.573 269.761 159.702 269.147 159.924C268.532 160.146 268.083 160.475 267.615 160.876C267.147 161.277 266.778 161.765 266.47 162.34C266.163 162.914 265.963 163.56 265.834 164.279C265.758 164.698 265.683 165.116 265.607 165.535C265.478 166.254 265.464 166.9 265.564 167.474C265.665 168.049 265.876 168.537 266.199 168.938C266.522 169.34 266.823 169.651 267.358 169.872C267.892 170.093 268.537 170.24 269.29 170.24C270.044 170.24 270.71 170.129 271.325 169.908C271.939 169.687 272.477 169.339 272.938 168.938C273.4 168.537 273.748 168.049 274.055 167.474C274.362 166.9 274.572 166.255 274.692 165.535C274.761 165.116 274.831 164.698 274.9 164.279C275.02 163.558 275.044 162.914 274.944 162.34C274.843 161.765 274.653 161.277 274.336 160.876C274.019 160.475 273.648 160.146 273.113 159.924C272.579 159.702 271.953 159.573 271.199 159.573L271.199 159.573ZM270.735 162.07C271.826 162.07 272.24 162.818 271.977 164.279C271.901 164.698 271.826 165.116 271.75 165.535C271.485 167.007 270.825 167.744 269.734 167.744C269.194 167.744 268.89 167.559 268.675 167.188C268.459 166.817 268.417 166.266 268.549 165.535C268.624 165.116 268.7 164.697 268.775 164.279C268.907 163.548 269.147 163.001 269.495 162.636C269.842 162.271 270.195 162.07 270.735 162.07L270.735 162.07Z" fill="#e00034" fill-rule="nonzero" opacity="1" stroke="none"/>
<path d="M249.629 160.867C249.155 161.273 248.815 161.789 248.5 162.375C248.184 162.962 247.962 163.614 247.833 164.332L247.606 165.589C247.451 166.451 247.455 167.179 247.62 167.771C247.785 168.364 248.057 168.876 248.436 169.235C248.815 169.594 249.213 169.852 249.74 170.007C250.267 170.162 250.808 170.24 251.363 170.24C252.164 170.24 252.709 170.205 253.289 170.132C253.87 170.06 254.469 169.951 255.087 169.806C255.38 169.75 255.52 169.567 255.563 169.318L255.811 167.906C255.845 167.714 255.745 167.602 255.512 167.618C254.94 167.659 254.335 167.705 253.818 167.726C253.184 167.751 252.613 167.78 252.004 167.78C251.633 167.78 251.338 167.726 251.117 167.62C250.896 167.513 250.727 167.37 250.611 167.192C250.495 167.015 250.427 166.808 250.408 166.57C250.389 166.333 250.403 166.089 250.448 165.841L250.454 165.805L256.226 165.805C256.485 165.805 256.641 165.661 256.692 165.374L256.881 164.332C257.004 163.65 257.021 163.022 256.934 162.447C256.846 161.872 256.649 161.357 256.342 160.938C256.035 160.52 255.616 160.172 255.086 159.933C254.556 159.693 253.914 159.567 253.163 159.573C251.786 159.585 250.607 160.038 249.629 160.867L249.629 160.867ZM252.778 161.944C253.296 161.944 253.673 162.109 253.91 162.437C254.147 162.767 254.204 163.267 254.084 163.937L254.071 164.009L250.777 164.009L250.791 163.937C250.909 163.279 251.153 162.782 251.521 162.447C251.89 162.112 252.26 161.944 252.778 161.944L252.778 161.944Z" fill="#e00034" fill-rule="nonzero" opacity="1" stroke="none"/>
<path d="M262.732 156.676C262.933 156.676 263.069 156.852 263.036 157.036L261.373 166.338C261.289 166.805 261.298 167.141 261.445 167.315C261.592 167.488 261.881 167.576 262.313 167.576L264.892 167.576C265.093 167.576 265.227 167.75 265.195 167.934L264.91 169.624C264.876 169.829 264.727 169.954 264.471 170.001C264.316 170.037 264.124 170.069 263.874 170.101C263.2 170.188 262.614 170.234 261.925 170.235C261.332 170.235 260.936 170.187 260.404 170.091C259.873 169.996 259.426 169.81 259.063 169.535C258.701 169.259 258.443 168.868 258.289 168.358C258.136 167.85 258.137 167.152 258.283 166.338L259.946 157.036C259.984 156.828 260.182 156.677 260.382 156.677L262.732 156.676Z" fill="#e00034" fill-rule="nonzero" opacity="1" stroke="none"/>
<path d="M243.994 157.665C244.859 157.665 245.588 157.712 246.162 157.804C246.738 157.897 247.3 158.016 247.832 158.158C247.998 158.203 248.044 158.27 248.016 158.428L247.694 160.224C247.653 160.451 247.547 160.47 247.442 160.47L247.384 160.47C246.83 160.412 246.275 160.339 245.757 160.297C245.052 160.241 244.533 160.189 243.857 160.188C243.39 160.188 243.053 160.236 242.829 160.337C242.651 160.416 242.422 160.593 242.351 160.985C242.311 161.204 242.364 161.402 242.505 161.556C242.618 161.679 242.775 161.811 242.994 161.948C243.824 162.467 244.55 162.957 245.38 163.474C245.779 163.722 246.096 163.977 246.322 164.231C246.72 164.678 246.987 165.226 247.003 165.786C247.01 166.063 246.986 166.379 246.936 166.652C246.848 167.133 246.671 167.629 246.409 168.055C246.148 168.479 245.798 168.85 245.369 169.158C244.936 169.469 244.41 169.718 243.805 169.899C243.197 170.081 242.45 170.156 241.657 170.154C240.635 170.152 239.825 170.036 238.893 169.875C238.568 169.819 238.271 169.754 238.01 169.683C237.844 169.639 237.798 169.571 237.827 169.414L238.149 167.617C238.179 167.449 238.305 167.391 238.445 167.371L238.519 167.371C238.812 167.415 239.138 167.46 239.487 167.49C240.497 167.577 241.164 167.674 242.12 167.675C242.708 167.676 243.107 167.595 243.343 167.431C243.584 167.262 243.738 167.003 243.8 166.661C243.839 166.45 243.796 166.251 243.671 166.069C243.559 165.906 243.354 165.735 243.047 165.543C242.176 165.001 241.398 164.456 240.526 163.914C240.002 163.587 239.616 163.168 239.384 162.665C239.151 162.162 239.094 161.533 239.217 160.867C239.407 159.826 239.911 159.026 240.714 158.488C241.528 157.942 242.499 157.665 243.995 157.665L243.994 157.665Z" fill="#e00034" fill-rule="nonzero" opacity="1" stroke="none"/>
<path d="M300.558 159.591C300.656 159.591 300.737 159.628 300.797 159.7C300.859 159.772 300.88 159.857 300.863 159.953L300.553 161.672C300.538 161.756 300.499 161.835 300.437 161.907C300.316 162.022 300.221 162.015 300.066 162.015C299.61 162.015 299.173 162.112 298.757 162.231C298.341 162.351 298.017 162.464 297.64 162.643L296.396 169.666C296.378 169.761 296.326 169.849 296.239 169.926C296.151 170.004 296.057 170.043 295.959 170.043L293.757 170.043C293.658 170.043 293.576 170.004 293.51 169.926C293.443 169.848 293.419 169.761 293.436 169.665L295.139 160.095C295.156 159.999 295.208 159.915 295.295 159.843C295.382 159.771 295.475 159.735 295.574 159.735L297.738 159.735C297.837 159.735 297.917 159.772 297.978 159.844C298.039 159.916 298.061 160.001 298.043 160.098L297.978 160.459C298.373 160.182 298.73 159.968 299.195 159.817C299.66 159.666 300.114 159.591 300.558 159.591L300.558 159.591Z" fill="#e00034" fill-rule="nonzero" opacity="1" stroke="none"/>
<path d="M286.572 160.867C286.098 161.273 285.758 161.789 285.443 162.375C285.127 162.962 284.905 163.614 284.776 164.332L284.549 165.589C284.394 166.451 284.398 167.179 284.563 167.771C284.728 168.364 285 168.876 285.379 169.235C285.758 169.594 286.156 169.852 286.683 170.007C287.21 170.162 287.751 170.24 288.306 170.24C289.108 170.24 289.652 170.205 290.232 170.132C290.813 170.06 291.412 169.951 292.03 169.806C292.323 169.75 292.463 169.567 292.506 169.318L292.754 167.906C292.788 167.714 292.688 167.602 292.455 167.618C291.883 167.659 291.278 167.705 290.761 167.726C290.127 167.751 289.556 167.78 288.947 167.78C288.576 167.78 288.281 167.726 288.06 167.62C287.839 167.513 287.67 167.37 287.554 167.192C287.438 167.015 287.37 166.808 287.351 166.57C287.332 166.333 287.346 166.089 287.391 165.841L287.397 165.805L293.169 165.805C293.428 165.805 293.584 165.661 293.636 165.374L293.824 164.332C293.947 163.65 293.964 163.022 293.877 162.447C293.789 161.872 293.592 161.357 293.285 160.938C292.978 160.52 292.559 160.172 292.029 159.933C291.499 159.693 290.857 159.567 290.106 159.573C288.729 159.585 287.55 160.038 286.572 160.867L286.572 160.867ZM289.721 161.944C290.239 161.944 290.617 162.109 290.853 162.437C291.09 162.767 291.147 163.267 291.027 163.937L291.014 164.009L287.72 164.009L287.734 163.937C287.852 163.279 288.096 162.782 288.464 162.447C288.833 162.112 289.203 161.944 289.721 161.944L289.721 161.944Z" fill="#e00034" fill-rule="nonzero" opacity="1" stroke="none"/>
</g>
<g opacity="1">
<g opacity="1">
<clipPath clip-rule="nonzero" id="ClipPath">
<path d="M363.968 250.23L453.968 250.23L453.968 265.501L363.968 265.501C363.968 265.501 363.968 250.23 363.968 250.23Z"/>
</clipPath>
<g clip-path="url(#ClipPath)">
<clipPath clip-rule="nonzero" id="ClipPath_2">
<path d="M363.968 265.501L453.968 265.501L453.968 250.23L363.968 250.23L363.968 265.501Z"/>
</clipPath>
<g clip-path="url(#ClipPath_2)">
<path d="M399.262 251.902C399.262 251.144 399.873 250.531 400.627 250.531C401.382 250.531 401.997 251.144 401.997 251.902C401.997 252.659 401.382 253.272 400.627 253.272C399.873 253.272 399.262 252.659 399.262 251.902" fill="#273b7d" fill-rule="nonzero" opacity="1" stroke="none"/>
<path d="M420.839 261.022C420.839 260.263 421.451 259.649 422.204 259.649C422.959 259.649 423.573 260.263 423.573 261.022C423.573 261.778 422.959 262.392 422.204 262.392C421.451 262.392 420.839 261.778 420.839 261.022" fill="#499fdd" fill-rule="nonzero" opacity="1" stroke="none"/>
<path d="M376.817 260.429C375.639 260.429 374.821 259.494 374.821 258.157C374.821 256.82 375.639 255.886 376.817 255.886C378.002 255.886 378.829 256.82 378.829 258.157C378.829 259.515 378.019 260.429 376.817 260.429ZM376.817 253.889C374.325 253.889 372.517 255.684 372.517 258.157C372.517 260.629 374.325 262.425 376.817 262.425C379.318 262.425 381.134 260.629 381.134 258.157C381.134 255.684 379.318 253.889 376.817 253.889" fill="#273b7d" fill-rule="nonzero" opacity="1" stroke="none"/>
<path d="M396.613 258.37C396.516 258.188 396.405 258.034 396.287 257.911L396.211 257.831L396.291 257.755C396.405 257.635 396.522 257.492 396.635 257.326L398.834 254.057L396.164 254.057L394.512 256.614C394.419 256.751 394.23 256.82 393.947 256.82L393.571 256.82L393.571 251.986C393.571 251.019 392.968 250.888 392.317 250.888L391.203 250.888L391.205 262.299L393.571 262.299L393.571 258.876L393.792 258.876C394.062 258.876 394.245 258.907 394.33 259.054L395.634 261.516C395.999 262.185 396.362 262.299 397.045 262.299L398.858 262.299L397.508 260.066L396.613 258.37" fill="#273b7d" fill-rule="nonzero" opacity="1" stroke="none"/>
<path d="M408.096 253.871C406.893 253.871 406.125 254.405 405.695 254.857L405.551 255.002L405.501 254.805C405.374 254.321 404.948 254.054 404.307 254.054L403.247 254.054L403.254 262.296L405.603 262.296L405.603 258.497C405.603 258.126 405.651 257.804 405.749 257.51C406.011 256.62 406.74 256.066 407.652 256.066C408.385 256.066 408.672 256.453 408.672 257.453L408.672 261.043C408.672 261.897 409.067 262.296 409.921 262.296L411.039 262.296L411.035 257.054C411.035 254.971 410.019 253.871 408.097 253.871" fill="#273b7d" fill-rule="nonzero" opacity="1" stroke="none"/>
<path d="M400.658 254.058L399.544 254.058L399.552 260.43L399.551 260.43L399.551 262.298L400.74 262.298C400.755 262.298 400.767 262.299 400.782 262.299L401.335 262.298L401.886 262.298L401.886 262.295L401.89 262.295L401.895 255.309C401.895 254.466 401.492 254.058 400.659 254.058" fill="#273b7d" fill-rule="nonzero" opacity="1" stroke="none"/>
<path d="M386.045 260.429C384.867 260.429 384.047 259.494 384.047 258.157C384.047 256.82 384.867 255.886 386.045 255.886C387.227 255.886 388.057 256.82 388.057 258.157C388.057 259.515 387.247 260.429 386.045 260.429ZM386.045 253.889C383.55 253.889 381.742 255.684 381.742 258.157C381.742 260.629 383.55 262.425 386.045 262.425C388.543 262.425 390.362 260.629 390.362 258.157C390.362 255.684 388.543 253.889 386.045 253.889" fill="#273b7d" fill-rule="nonzero" opacity="1" stroke="none"/>
</g>
</g>
</g>
<g opacity="1">
<clipPath clip-rule="nonzero" id="ClipPath_3">
<path d="M363.968 250.23L453.968 250.23L453.968 265.501L363.968 265.501C363.968 265.501 363.968 250.23 363.968 250.23Z"/>
</clipPath>
<g clip-path="url(#ClipPath_3)">
<clipPath clip-rule="nonzero" id="ClipPath_4">
<path d="M363.968 250.531L453.949 250.531L453.949 265.481L363.968 265.481L363.968 250.531Z"/>
</clipPath>
<g clip-path="url(#ClipPath_4)">
<clipPath clip-rule="nonzero" id="ClipPath_5">
<path d="M363.968 265.501L453.968 265.501L453.968 250.23L363.968 250.23L363.968 265.501Z"/>
</clipPath>
<g clip-path="url(#ClipPath_5)">
<path d="M436.401 260.429C435.224 260.429 434.403 259.494 434.403 258.157C434.403 256.82 435.224 255.886 436.401 255.886C437.583 255.886 438.414 256.82 438.414 258.157C438.414 259.515 437.603 260.429 436.401 260.429ZM436.401 253.889C433.907 253.889 432.099 255.684 432.099 258.157C432.099 260.629 433.907 262.425 436.401 262.425C438.9 262.425 440.719 260.629 440.719 258.157C440.719 255.684 438.9 253.889 436.401 253.889" fill="#499fdd" fill-rule="nonzero" opacity="1" stroke="none"/>
<path d="M415.989 260.066C414.704 260.066 414.247 258.946 414.247 257.896C414.247 257.433 414.364 255.925 415.865 255.925C416.611 255.925 417.605 256.139 417.605 257.973C417.605 259.703 416.726 260.066 415.989 260.066ZM418.825 254.036C418.379 254.036 418.036 254.213 417.864 254.538L417.799 254.664L417.691 254.57C417.311 254.241 416.631 253.852 415.527 253.852C413.331 253.852 411.852 255.502 411.852 257.957C411.852 260.41 413.382 262.124 415.572 262.124C416.319 262.124 416.91 261.949 417.379 261.594L417.56 261.458L417.56 261.687C417.56 262.788 416.848 263.395 415.558 263.395C414.931 263.395 414.36 263.243 413.978 263.104C413.48 262.954 413.188 263.078 412.986 263.578L412.799 264.04L412.535 264.714L412.699 264.801C413.525 265.239 414.6 265.5 415.572 265.5C417.572 265.5 419.908 264.476 419.908 261.594L419.917 254.036L418.826 254.036" fill="#273b7d" fill-rule="nonzero" opacity="1" stroke="none"/>
</g>
</g>
</g>
</g>
<g opacity="1">
<clipPath clip-rule="nonzero" id="ClipPath_6">
<path d="M363.968 250.23L453.968 250.23L453.968 265.501L363.968 265.501C363.968 265.501 363.968 250.23 363.968 250.23Z"/>
</clipPath>
<g clip-path="url(#ClipPath_6)">
<clipPath clip-rule="nonzero" id="ClipPath_7">
<path d="M363.968 265.501L453.968 265.501L453.968 250.23L363.968 250.23L363.968 265.501Z"/>
</clipPath>
<g clip-path="url(#ClipPath_7)">
<path d="M368.068 260.334L366.155 260.332L366.155 258.046C366.155 257.557 366.345 257.303 366.764 257.245L368.068 257.245C368.999 257.245 369.6 257.832 369.601 258.782C369.6 259.756 369.014 260.334 368.068 260.334ZM366.155 254.167L366.155 253.565C366.155 253.038 366.378 252.788 366.867 252.756L367.846 252.756C368.685 252.756 369.188 253.258 369.188 254.098C369.188 254.739 368.844 255.486 367.877 255.486L366.155 255.486C366.155 255.486 366.155 254.167 366.155 254.167ZM370.51 256.448L370.164 256.254L370.466 255.996C370.817 255.694 371.406 255.016 371.406 253.844C371.406 252.05 370.014 250.892 367.861 250.892L365.404 250.892L365.404 250.892L365.124 250.892C364.486 250.915 363.975 251.434 363.968 252.077L363.968 262.257L365.095 262.257C365.098 262.258 365.099 262.257 365.1 262.258L367.91 262.257C370.303 262.257 371.848 260.954 371.848 258.936C371.848 257.85 371.349 256.921 370.51 256.448" fill="#273b7d" fill-rule="nonzero" opacity="1" stroke="none"/>
<path d="M451.213 253.897C450.238 253.897 449.296 254.354 448.691 255.119L448.521 255.335L448.387 255.094C447.952 254.3 447.203 253.897 446.162 253.897C445.07 253.897 444.337 254.506 443.997 254.869L443.775 255.11L443.689 254.793C443.565 254.336 443.158 254.085 442.543 254.085L441.555 254.085L441.546 262.295L443.789 262.295L443.789 258.671C443.789 258.353 443.829 258.039 443.908 257.71C444.123 256.835 444.711 255.893 445.7 255.987C446.311 256.046 446.608 256.517 446.608 257.428L446.608 262.295L448.868 262.295L448.868 258.671C448.868 258.274 448.905 257.977 448.994 257.679C449.176 256.843 449.791 255.986 450.745 255.986C451.436 255.986 451.691 256.377 451.691 257.428L451.691 261.094C451.691 261.924 452.061 262.295 452.89 262.295L453.946 262.295L453.948 257.053C453.948 254.96 453.026 253.897 451.212 253.897" fill="#499fdd" fill-rule="nonzero" opacity="1" stroke="none"/>
<path d="M430.8 259.444C430.793 259.452 429.828 260.47 428.557 260.47C427.399 260.47 426.229 259.76 426.229 258.173C426.229 256.804 427.136 255.847 428.434 255.847C428.856 255.847 429.335 255.998 429.41 256.252L429.421 256.295C429.594 256.871 430.118 256.902 430.221 256.902L431.45 256.903L431.45 255.829C431.45 254.411 429.647 253.897 428.434 253.897C425.84 253.897 423.958 255.703 423.958 258.191C423.958 260.677 425.82 262.48 428.387 262.48C430.614 262.48 431.825 261.016 431.836 261.002L431.901 260.922L430.928 259.308L430.8 259.444" fill="#499fdd" fill-rule="nonzero" opacity="1" stroke="none"/>
</g>
</g>
</g>
</g>
<path d="M322.573 223.159C322.573 224.284 321.667 225.19 320.542 225.19C319.418 225.19 318.512 224.284 318.512 223.159C318.512 222.035 319.386 221.129 320.542 221.129C321.698 221.16 322.573 222.066 322.573 223.159ZM314.201 227.252C314.201 227.439 314.201 227.752 314.201 227.752C314.201 227.752 313.232 226.502 311.17 226.502C307.765 226.502 305.11 229.095 305.11 232.687C305.11 236.249 307.734 238.873 311.17 238.873C313.263 238.873 314.201 237.592 314.201 237.592L314.201 238.123C314.201 238.373 314.388 238.56 314.638 238.56L317.168 238.56L317.168 226.814C317.168 226.814 314.857 226.814 314.638 226.814C314.388 226.814 314.201 227.033 314.201 227.252ZM314.201 234.78C313.732 235.468 312.795 236.061 311.67 236.061C309.671 236.061 308.14 234.812 308.14 232.687C308.14 230.563 309.671 229.314 311.67 229.314C312.764 229.314 313.763 229.938 314.201 230.594L314.201 234.78ZM319.043 226.814L322.042 226.814L322.042 238.56L319.043 238.56L319.043 226.814ZM363.84 226.502C361.778 226.502 360.81 227.752 360.81 227.752L360.81 221.16L357.811 221.16L357.811 238.56C357.811 238.56 360.122 238.56 360.341 238.56C360.591 238.56 360.779 238.342 360.779 238.123L360.779 237.592L360.779 237.592C360.779 237.592 361.747 238.873 363.809 238.873C367.214 238.873 369.869 236.249 369.869 232.687C369.869 229.126 367.214 226.502 363.84 226.502ZM363.34 236.03C362.184 236.03 361.278 235.437 360.81 234.749L360.81 230.563C361.278 229.938 362.278 229.282 363.34 229.282C365.339 229.282 366.87 230.532 366.87 232.656C366.87 234.78 365.339 236.03 363.34 236.03ZM356.249 231.594L356.249 238.592L353.25 238.592L353.25 231.938C353.25 230.001 352.625 229.22 350.938 229.22C350.032 229.22 349.095 229.688 348.501 230.376L348.501 238.56L345.502 238.56L345.502 226.814L347.877 226.814C348.127 226.814 348.314 227.033 348.314 227.252L348.314 227.752C349.189 226.846 350.345 226.502 351.5 226.502C352.812 226.502 353.906 226.877 354.781 227.627C355.843 228.501 356.249 229.626 356.249 231.594ZM338.224 226.502C336.162 226.502 335.193 227.752 335.193 227.752L335.193 221.16L332.194 221.16L332.194 238.56C332.194 238.56 334.506 238.56 334.725 238.56C334.975 238.56 335.162 238.342 335.162 238.123L335.162 237.592L335.162 237.592C335.162 237.592 336.131 238.873 338.192 238.873C341.597 238.873 344.253 236.249 344.253 232.687C344.284 229.126 341.629 226.502 338.224 226.502ZM337.724 236.03C336.568 236.03 335.662 235.437 335.193 234.749L335.193 230.563C335.662 229.938 336.662 229.282 337.724 229.282C339.723 229.282 341.254 230.532 341.254 232.656C341.254 234.78 339.723 236.03 337.724 236.03ZM329.602 226.502C330.507 226.502 330.976 226.658 330.976 226.658L330.976 229.439C330.976 229.439 328.477 228.595 326.915 230.376L326.915 238.592L323.916 238.592L323.916 226.814C323.916 226.814 326.228 226.814 326.446 226.814C326.696 226.814 326.884 227.033 326.884 227.252L326.884 227.752C327.446 227.096 328.664 226.502 329.602 226.502ZM298.456 237.498C298.3 237.123 298.143 236.717 297.987 236.374C297.737 235.811 297.487 235.28 297.269 234.78L297.238 234.749C295.082 230.063 292.77 225.315 290.334 220.629L290.24 220.442C289.99 219.973 289.74 219.473 289.49 218.973C289.178 218.411 288.865 217.817 288.366 217.255C287.366 216.006 285.929 215.318 284.398 215.318C282.836 215.318 281.43 216.006 280.399 217.193C279.931 217.755 279.587 218.349 279.275 218.911C279.025 219.411 278.775 219.911 278.525 220.379L278.431 220.567C276.026 225.252 273.683 230.001 271.527 234.687L271.496 234.749C271.278 235.249 271.028 235.78 270.778 236.342C270.622 236.686 270.465 237.061 270.309 237.467C269.903 238.623 269.778 239.716 269.934 240.841C270.278 243.184 271.84 245.152 273.995 246.027C274.808 246.37 275.651 246.527 276.526 246.527C276.776 246.527 277.088 246.495 277.338 246.464C278.369 246.339 279.431 245.995 280.462 245.402C281.743 244.683 282.961 243.652 284.336 242.153C285.71 243.652 286.96 244.683 288.209 245.402C289.24 245.995 290.302 246.339 291.333 246.464C291.583 246.495 291.896 246.527 292.145 246.527C293.02 246.527 293.895 246.37 294.676 246.027C296.863 245.152 298.393 243.153 298.737 240.841C298.987 239.748 298.862 238.654 298.456 237.498ZM284.367 239.123C282.68 236.998 281.587 234.999 281.212 233.312C281.055 232.594 281.024 231.969 281.118 231.407C281.18 230.907 281.368 230.469 281.618 230.095C282.211 229.251 283.211 228.72 284.367 228.72C285.523 228.72 286.554 229.22 287.116 230.095C287.366 230.469 287.553 230.907 287.616 231.407C287.709 231.969 287.678 232.625 287.522 233.312C287.147 234.968 286.054 236.967 284.367 239.123ZM296.831 240.591C296.613 242.215 295.519 243.621 293.989 244.246C293.239 244.558 292.427 244.652 291.614 244.558C290.833 244.465 290.052 244.215 289.24 243.746C288.116 243.121 286.991 242.153 285.679 240.716C287.741 238.186 288.99 235.874 289.459 233.812C289.678 232.844 289.709 231.969 289.615 231.157C289.49 230.376 289.209 229.657 288.772 229.032C287.803 227.627 286.179 226.814 284.367 226.814C282.555 226.814 280.931 227.658 279.962 229.032C279.525 229.657 279.244 230.376 279.119 231.157C278.994 231.969 279.025 232.875 279.275 233.812C279.743 235.874 281.024 238.217 283.055 240.747C281.774 242.184 280.618 243.153 279.494 243.777C278.681 244.246 277.9 244.496 277.119 244.59C276.276 244.683 275.464 244.558 274.745 244.277C273.214 243.652 272.121 242.247 271.902 240.622C271.809 239.841 271.871 239.06 272.183 238.186C272.277 237.873 272.433 237.561 272.59 237.186C272.808 236.686 273.058 236.155 273.308 235.624L273.339 235.561C275.495 230.907 277.807 226.158 280.212 221.535L280.306 221.348C280.556 220.879 280.806 220.379 281.055 219.911C281.305 219.411 281.587 218.942 281.93 218.536C282.586 217.786 283.461 217.38 284.429 217.38C285.398 217.38 286.272 217.786 286.929 218.536C287.272 218.942 287.553 219.411 287.803 219.911C288.053 220.379 288.303 220.879 288.553 221.348L288.647 221.535C291.021 226.19 293.333 230.938 295.488 235.593L295.488 235.624C295.738 236.124 295.957 236.686 296.207 237.186C296.363 237.561 296.519 237.873 296.613 238.186C296.863 238.998 296.956 239.779 296.831 240.591Z" fill="#ff5a5f" fill-rule="nonzero" opacity="1" stroke="none"/>
<g opacity="1">
<path d="M303.597 274.837C303.597 263.239 312.999 253.837 324.597 253.837C336.195 253.837 345.597 263.239 345.597 274.837C345.597 286.435 336.195 295.837 324.597 295.837C312.999 295.837 303.597 286.435 303.597 274.837Z" fill="#ffffff" fill-rule="nonzero" opacity="1" stroke="none"/>
<path d="M345.597 274.914C345.597 263.316 336.195 253.914 324.597 253.914C312.999 253.914 303.597 263.316 303.597 274.914C303.597 284.762 310.378 293.026 319.524 295.296L319.524 281.331L315.194 281.331L315.194 274.914L319.524 274.914L319.524 272.149C319.524 265.001 322.759 261.688 329.777 261.688C331.107 261.688 333.403 261.949 334.342 262.21L334.342 268.027C333.846 267.975 332.985 267.949 331.916 267.949C328.473 267.949 327.142 269.253 327.142 272.644L327.142 274.914L334.002 274.914L332.823 281.331L327.142 281.331L327.142 295.76C337.539 294.504 345.597 285.651 345.597 274.914Z" fill="#0866ff" fill-rule="nonzero" opacity="1" stroke="none"/>
</g>
<path d="M126.345 89.559L139.302 74.6586L142.267 77.4848L131.751 89.5814L126.345 89.559Z" fill="#ffffff" fill-rule="nonzero" opacity="1" stroke="none"/>
<path d="M143.894 68.7682L153.261 57.9072L158.695 57.8897L146.272 72.0562L143.894 68.7682Z" fill="#ffffff" fill-rule="nonzero" opacity="1" stroke="none"/>
<path d="M125.625 57.8125L149.969 89.5312L160.625 89.4375L136.781 57.875L125.625 57.8125ZM131.969 60.9375L135.188 60.9375L154.344 86.2812L151.375 86.3125L131.969 60.9375Z" fill="#ffffff" fill-rule="nonzero" opacity="1" stroke="none"/>
</g>
</svg>
