<?xml version="1.0" encoding="UTF-8" standalone="no"?>
<!DOCTYPE svg PUBLIC "-//W3C//DTD SVG 1.1//EN" "http://www.w3.org/Graphics/SVG/1.1/DTD/svg11.dtd">
<!-- Created with Vectornator (http://vectornator.io/) -->
<svg height="100%" stroke-miterlimit="10" style="fill-rule:nonzero;clip-rule:evenodd;stroke-linecap:round;stroke-linejoin:round;" version="1.1" viewBox="0 0 300 300" width="100%" xml:space="preserve" xmlns="http://www.w3.org/2000/svg" xmlns:xlink="http://www.w3.org/1999/xlink">
<defs/>
<g id="Sans-titre">
<path d="M54.2714 26.705C38.9301 26.705 26.466 39.1337 26.466 54.4749L26.466 248.9C26.466 264.241 38.9301 276.705 54.2714 276.705L248.696 276.705C264.037 276.705 276.466 264.241 276.466 248.9L276.466 54.4749C276.466 39.1337 264.037 26.705 248.696 26.705L54.2714 26.705ZM83.2486 61.3996C95.4267 61.3996 105.301 71.3636 105.301 83.6297C105.301 95.8959 95.4267 105.824 83.2486 105.824C71.0705 105.824 61.1961 95.8959 61.1961 83.6297C61.1961 71.3636 71.0705 61.3996 83.2486 61.3996ZM197.95 117.934C223.482 117.934 241.771 133.522 241.771 165.768L241.771 241.975L204.662 241.975L204.662 178.8C204.662 161.476 198.062 151.776 184.349 151.776C169.432 151.776 161.658 161.87 161.658 178.8L161.658 241.975L125.898 241.975L125.898 121.591L161.658 121.591L161.658 137.82C161.658 137.82 172.407 117.934 197.95 117.934ZM64.7827 121.591L102.07 121.591L102.07 241.975L64.7827 241.975L64.7827 121.591Z" fill="#ffffff" fill-rule="nonzero" opacity="1" stroke="none"/>
</g>
</svg>
