<?xml version="1.0" encoding="UTF-8" standalone="no"?>
<!DOCTYPE svg PUBLIC "-//W3C//DTD SVG 1.1//EN" "http://www.w3.org/Graphics/SVG/1.1/DTD/svg11.dtd">
<!-- Created with Vectornator (http://vectornator.io/) -->
<svg height="100%" stroke-miterlimit="10" style="fill-rule:nonzero;clip-rule:evenodd;stroke-linecap:round;stroke-linejoin:round;" version="1.1" viewBox="0 0 300 300" width="100%" xml:space="preserve" xmlns="http://www.w3.org/2000/svg" xmlns:xlink="http://www.w3.org/1999/xlink">
<defs/>
<g id="Sans-titre">
<path d="M254.964 199.929C249.321 196.832 221.505 181.85 216.291 179.704C211.078 177.587 207.29 176.483 203.226 182.111C199.178 187.708 187.647 200.282 184.135 204.024C180.608 207.765 177.235 208.072 171.592 205.005C165.949 201.923 147.594 195.13 126.356 174.689C109.81 158.788 98.9532 139.482 95.7943 133.593C92.6661 127.705 95.7636 124.699 98.7692 121.939C101.437 119.455 104.78 115.422 107.801 112.171C110.807 108.92 111.849 106.544 113.904 102.787C115.959 98.999 115.162 95.6255 113.781 92.666C112.463 89.7525 101.989 60.9393 97.6038 49.2392C93.2488 37.5238 88.3878 39.2566 84.999 39.1186C81.6561 38.9959 77.8072 38.3519 73.9736 38.2292C70.14 38.1065 63.8376 39.2719 58.3479 44.8536C52.8582 50.4353 37.4473 63.7915 36.3892 92.1446C35.3465 120.482 54.9284 148.636 57.6579 152.577C60.3874 156.533 95.1043 217.978 152.792 243.249C210.495 268.505 210.802 260.807 221.398 260.224C231.994 259.657 256.007 247.573 261.313 234.294C266.619 221.014 267.048 209.498 265.698 207.045C264.395 204.622 260.607 203.027 254.964 199.929Z" fill="#ffffff" fill-rule="nonzero" opacity="1" stroke="none"/>
</g>
</svg>
