<?xml version="1.0" encoding="UTF-8" standalone="no"?>
<!DOCTYPE svg PUBLIC "-//W3C//DTD SVG 1.1//EN" "http://www.w3.org/Graphics/SVG/1.1/DTD/svg11.dtd">
<!-- Created with Vectornator (http://vectornator.io/) -->
<svg height="100%" stroke-miterlimit="10" style="fill-rule:nonzero;clip-rule:evenodd;stroke-linecap:round;stroke-linejoin:round;" version="1.1" viewBox="0 0 395.71 395.71" width="100%" xml:space="preserve" xmlns="http://www.w3.org/2000/svg" xmlns:xlink="http://www.w3.org/1999/xlink">
<defs/>
<g id="Sans-titre">
<path d="M197.849 0C122.131 0 60.531 61.609 60.531 137.329C60.531 210.216 185.122 380.506 190.427 387.717L195.378 394.455C195.957 395.247 196.879 395.71 197.849 395.71C198.834 395.71 199.75 395.247 200.335 394.455L205.283 387.717C210.591 380.506 335.179 210.216 335.179 137.329C335.179 61.609 273.569 0 197.849 0ZM197.849 88.138C224.979 88.138 247.04 110.2 247.04 137.329C247.04 164.444 224.978 186.52 197.849 186.52C170.735 186.52 148.658 164.444 148.658 137.329C148.658 110.2 170.734 88.138 197.849 88.138Z" fill="#ffffff" fill-rule="nonzero" opacity="1" stroke="none"/>
</g>
</svg>
