<?xml version="1.0" encoding="UTF-8" standalone="no"?>
<!DOCTYPE svg PUBLIC "-//W3C//DTD SVG 1.1//EN" "http://www.w3.org/Graphics/SVG/1.1/DTD/svg11.dtd">
<!-- Created with Vectornator (http://vectornator.io/) -->
<svg height="100%" stroke-miterlimit="10" style="fill-rule:nonzero;clip-rule:evenodd;stroke-linecap:round;stroke-linejoin:round;" version="1.1" viewBox="0 0 240.1 240.1" width="100%" xml:space="preserve" xmlns="http://www.w3.org/2000/svg" xmlns:xlink="http://www.w3.org/1999/xlink">
<defs/>
<g id="Artboard">
<path d="M30.7621 112.269C87.122 87.7929 124.642 71.5291 143.482 63.6387C197.104 41.2558 208.376 37.3911 215.622 37.2301C217.233 37.2301 220.775 37.5521 223.191 39.4845C225.123 41.0947 225.606 43.1881 225.928 44.7984C226.25 46.4087 226.572 49.7903 226.25 52.3667C223.352 82.9621 210.792 157.196 204.35 191.334C201.613 205.827 196.299 210.657 191.146 211.14C179.874 212.107 171.34 203.733 160.551 196.648C143.482 185.537 133.981 178.613 117.395 167.663C98.2329 155.103 110.632 148.178 121.582 136.906C124.481 134.008 173.916 88.9201 174.882 84.8944C175.043 84.4113 175.043 82.479 173.916 81.5128C172.789 80.5466 171.179 80.8687 169.89 81.1907C168.119 81.5128 141.066 99.548 88.4102 135.135C80.6808 140.449 73.7566 143.026 67.4765 142.865C60.5523 142.704 47.348 139 37.3643 135.779C25.2872 131.915 15.6255 129.821 16.4306 123.058C16.9137 119.515 21.7445 115.973 30.7621 112.269Z" fill="#ffffff" fill-rule="evenodd" opacity="1" stroke="none"/>
</g>
</svg>
