<?xml version="1.0" encoding="UTF-8" standalone="no"?>
<!DOCTYPE svg PUBLIC "-//W3C//DTD SVG 1.1//EN" "http://www.w3.org/Graphics/SVG/1.1/DTD/svg11.dtd">
<!-- Created with Vectornator (http://vectornator.io/) -->
<svg height="100%" stroke-miterlimit="10" style="fill-rule:nonzero;clip-rule:evenodd;stroke-linecap:round;stroke-linejoin:round;" version="1.1" viewBox="0 0 283.46 283.46" width="100%" xml:space="preserve" xmlns="http://www.w3.org/2000/svg" xmlns:vectornator="http://vectornator.io" xmlns:xlink="http://www.w3.org/1999/xlink">
<defs/>
<clipPath id="ArtboardFrame">
<rect height="283.46" width="283.46" x="0" y="0"/>
</clipPath>
<g clip-path="url(#ArtboardFrame)" id="Sans-titre" vectornator:layerName="Sans titre">
<g opacity="1" vectornator:layerName="g">
<path d="M0 234.03L234.01 0L248.35 37.09L271.56 152.85L220.22 230.64L135.26 269.45L62.96 262.99L0 234.03Z" fill="#ffffff" fill-rule="nonzero" opacity="1" stroke="none" vectornator:layerName="polygon"/>
<path d="M234.99 0.94C234.67 0.62 234.33 0.33 234.01 0L216.01 18C216.33 18.32 216.67 18.62 216.99 18.93C271.68 73.61 271.68 162.29 216.99 216.98C162.31 271.67 73.63 271.66 18.94 216.98C18.62 216.66 18.32 216.31 18.01 216L0 234.02C0.32 234.34 0.61 234.68 0.93 235C65.55 299.58 170.37 299.64 234.99 235C299.63 170.39 299.62 65.58 234.99 0.94Z" fill="#0073ff" fill-rule="nonzero" opacity="1" stroke="none" vectornator:layerName="path"/>
<path d="M198.4 35.62L35.61 198.41C80.56 243.37 153.46 243.36 198.4 198.41C243.37 153.47 243.37 80.59 198.4 35.62ZM98.92 194.09C98.68 195.04 98.33 196 97.86 196.92C94.98 202.57 88.73 205.16 83.91 202.69C79.08 200.17 77.51 193.66 80.39 187.97C80.86 187.04 81.43 186.23 82.07 185.45C83.23 183.84 85.65 181.71 88.7 179.75C91 178.29 93.26 177.22 95.05 176.59L95.05 176.59L95.05 176.59C96 176.27 96.84 176.09 97.5 176.06C97.86 176.61 98.18 177.38 98.49 178.32C98.48 178.34 98.46 178.36 98.45 178.36C98.46 178.36 98.48 178.33 98.49 178.32L98.49 178.32C99.06 180.13 99.48 182.6 99.66 185.33C99.86 188.99 99.55 192.21 98.92 194.09ZM174.33 96.77C174.36 96.76 174.37 96.77 174.39 96.75C174.37 96.77 174.35 96.76 174.33 96.77L174.33 96.77C174.95 95 176.06 92.72 177.5 90.44C179.45 87.39 181.59 84.98 183.2 83.82C183.96 83.16 184.82 82.62 185.73 82.13C191.4 79.25 197.96 80.83 200.43 85.66C202.89 90.49 200.3 96.72 194.65 99.59C193.72 100.06 192.77 100.43 191.82 100.66C189.94 101.3 186.72 101.59 183.08 101.38C180.37 101.23 177.91 100.77 176.09 100.2L176.09 100.2C176.1 100.2 176.12 100.17 176.14 100.17C176.11 100.17 176.1 100.2 176.09 100.2C175.14 99.9 174.35 99.56 173.82 99.21C173.83 98.55 174.02 97.73 174.33 96.77ZM135.21 203.64C129.86 204.49 124.73 200.09 123.73 193.82C123.58 192.78 123.53 191.77 123.6 190.77C123.58 188.78 124.28 185.6 125.61 182.27C126.6 179.74 127.77 177.53 128.88 175.98L128.88 175.98C128.89 176.01 128.89 176.02 128.89 176.04C128.89 176.02 128.88 176.01 128.88 175.98C129.47 175.16 130.04 174.52 130.54 174.13C131.14 174.35 131.88 174.79 132.69 175.37C132.7 175.39 132.69 175.43 132.7 175.44C132.7 175.43 132.69 175.4 132.69 175.37L132.69 175.37C134.22 176.52 136.01 178.16 137.74 180.27C140.06 183.06 141.71 185.87 142.3 187.84C142.68 188.75 142.95 189.73 143.1 190.76C144.08 197.03 140.55 202.79 135.21 203.64ZM181.01 181.62C177.17 185.44 170.46 184.91 165.97 180.42C165.24 179.69 164.6 178.89 164.08 178.05C162.88 176.45 161.6 173.49 160.7 169.97C160.02 167.34 159.67 164.86 159.66 162.96L159.66 162.96C159.67 162.98 159.69 162.99 159.71 163C159.68 162.99 159.67 162.98 159.66 162.96C159.65 161.95 159.74 161.13 159.91 160.5C160.53 160.32 161.37 160.13 162.39 160.24L162.39 160.24L162.39 160.24C164.29 160.27 166.77 160.6 169.4 161.3C172.94 162.21 175.9 163.5 177.49 164.62C178.32 165.14 179.12 165.82 179.84 166.51C184.3 171.05 184.83 177.78 181.01 181.62ZM189.16 143.65C188.14 143.48 187.18 143.2 186.25 142.84C184.35 142.25 181.58 140.6 178.75 138.31C176.65 136.57 174.91 134.76 173.78 133.24L173.78 133.24L173.78 133.24C173.18 132.43 172.76 131.7 172.55 131.09C172.94 130.58 173.57 130.02 174.38 129.42C174.41 129.43 174.43 129.44 174.45 129.44C174.43 129.44 174.41 129.43 174.38 129.42C175.93 128.32 178.15 127.17 180.68 126.15C184.05 124.82 187.19 124.11 189.18 124.15C190.16 124.07 191.19 124.1 192.23 124.28C198.49 125.28 202.9 130.42 202.06 135.76C201.21 141.1 195.43 144.64 189.16 143.65Z" fill="#ff0000" fill-rule="nonzero" opacity="1" stroke="none" vectornator:layerName="path"/>
</g>
</g>
</svg>
