<?xml version="1.0" encoding="utf-8"?>
<!-- Generator: Adobe Illustrator 24.1.0, SVG Export Plug-In . SVG Version: 6.00 Build 0)  -->
<svg version="1.1" id="Calque_1" xmlns="http://www.w3.org/2000/svg" xmlns:xlink="http://www.w3.org/1999/xlink" x="0px" y="0px"
	 viewBox="0 0 283.46 283.46" style="enable-background:new 0 0 283.46 283.46;" xml:space="preserve">
<style type="text/css">
	.st0{fill:#FFFFFF;}
	.st1{fill:#0000FF;}
	.st2{fill:#FF0000;}
</style>
<g>
	<polygon class="st0" points="0,234.03 234.01,0 248.35,37.09 271.56,152.85 220.22,230.64 135.26,269.45 62.96,262.99 	"/>
	<path class="st1" d="M234.99,0.94c-0.32-0.32-0.66-0.61-0.98-0.94l-18,18c0.32,0.32,0.66,0.62,0.98,0.93
		c54.69,54.68,54.69,143.36,0,198.05c-54.68,54.69-143.36,54.68-198.05,0c-0.32-0.32-0.62-0.67-0.93-0.98L0,234.02
		c0.32,0.32,0.61,0.66,0.93,0.98c64.62,64.58,169.44,64.64,234.06,0C299.63,170.39,299.62,65.58,234.99,0.94z"/>
	<path class="st2" d="M198.4,35.62L35.61,198.41c44.95,44.96,117.85,44.95,162.79,0C243.37,153.47,243.37,80.59,198.4,35.62z
		 M98.92,194.09c-0.24,0.95-0.59,1.91-1.06,2.83c-2.88,5.65-9.13,8.24-13.95,5.77c-4.83-2.52-6.4-9.03-3.52-14.72
		c0.47-0.93,1.04-1.74,1.68-2.52c1.16-1.61,3.58-3.74,6.63-5.7c2.3-1.46,4.56-2.53,6.35-3.16l0,0l0,0c0.95-0.32,1.79-0.5,2.45-0.53
		c0.36,0.55,0.68,1.32,0.99,2.26c-0.01,0.02-0.03,0.04-0.04,0.04c0.01,0,0.03-0.03,0.04-0.04l0,0c0.57,1.81,0.99,4.28,1.17,7.01
		C99.86,188.99,99.55,192.21,98.92,194.09z M174.33,96.77c0.03-0.01,0.04,0,0.06-0.02C174.37,96.77,174.35,96.76,174.33,96.77
		L174.33,96.77c0.62-1.77,1.73-4.05,3.17-6.33c1.95-3.05,4.09-5.46,5.7-6.62c0.76-0.66,1.62-1.2,2.53-1.69
		c5.67-2.88,12.23-1.3,14.7,3.53c2.46,4.83-0.13,11.06-5.78,13.93c-0.93,0.47-1.88,0.84-2.83,1.07c-1.88,0.64-5.1,0.93-8.74,0.72
		c-2.71-0.15-5.17-0.61-6.99-1.18l0,0c0.01,0,0.03-0.03,0.05-0.03c-0.03,0-0.04,0.03-0.05,0.03c-0.95-0.3-1.74-0.64-2.27-0.99
		C173.83,98.55,174.02,97.73,174.33,96.77z M135.21,203.64c-5.35,0.85-10.48-3.55-11.48-9.82c-0.15-1.04-0.2-2.05-0.13-3.05
		c-0.02-1.99,0.68-5.17,2.01-8.5c0.99-2.53,2.16-4.74,3.27-6.29l0,0c0.01,0.03,0.01,0.04,0.01,0.06c0-0.02-0.01-0.03-0.01-0.06
		c0.59-0.82,1.16-1.46,1.66-1.85c0.6,0.22,1.34,0.66,2.15,1.24c0.01,0.02,0,0.06,0.01,0.07c0-0.01-0.01-0.04-0.01-0.07l0,0
		c1.53,1.15,3.32,2.79,5.05,4.9c2.32,2.79,3.97,5.6,4.56,7.57c0.38,0.91,0.65,1.89,0.8,2.92
		C144.08,197.03,140.55,202.79,135.21,203.64z M181.01,181.62c-3.84,3.82-10.55,3.29-15.04-1.2c-0.73-0.73-1.37-1.53-1.89-2.37
		c-1.2-1.6-2.48-4.56-3.38-8.08c-0.68-2.63-1.03-5.11-1.04-7.01l0,0c0.01,0.02,0.03,0.03,0.05,0.04c-0.03-0.01-0.04-0.02-0.05-0.04
		c-0.01-1.01,0.08-1.83,0.25-2.46c0.62-0.18,1.46-0.37,2.48-0.26l0,0l0,0c1.9,0.03,4.38,0.36,7.01,1.06c3.54,0.91,6.5,2.2,8.09,3.32
		c0.83,0.52,1.63,1.2,2.35,1.89C184.3,171.05,184.83,177.78,181.01,181.62z M189.16,143.65c-1.02-0.17-1.98-0.45-2.91-0.81
		c-1.9-0.59-4.67-2.24-7.5-4.53c-2.1-1.74-3.84-3.55-4.97-5.07l0,0l0,0c-0.6-0.81-1.02-1.54-1.23-2.15
		c0.39-0.51,1.02-1.07,1.83-1.67c0.03,0.01,0.05,0.02,0.07,0.02c-0.02,0-0.04-0.01-0.07-0.02c1.55-1.1,3.77-2.25,6.3-3.27
		c3.37-1.33,6.51-2.04,8.5-2c0.98-0.08,2.01-0.05,3.05,0.13c6.26,1,10.67,6.14,9.83,11.48C201.21,141.1,195.43,144.64,189.16,143.65
		z"/>
</g>
</svg>
