<?xml version="1.0" encoding="UTF-8" standalone="no"?>
<!DOCTYPE svg PUBLIC "-//W3C//DTD SVG 1.1//EN" "http://www.w3.org/Graphics/SVG/1.1/DTD/svg11.dtd">
<!-- Created with Vectornator (http://vectornator.io/) -->
<svg height="100%" stroke-miterlimit="10" style="fill-rule:nonzero;clip-rule:evenodd;stroke-linecap:round;stroke-linejoin:round;" version="1.1" viewBox="0 0 512 512" width="100%" xml:space="preserve" xmlns="http://www.w3.org/2000/svg" xmlns:xlink="http://www.w3.org/1999/xlink">
<defs/>
<clipPath id="ArtboardFrame">
<rect height="512" width="512" x="0" y="0"/>
</clipPath>
<g clip-path="url(#ArtboardFrame)" id="WA-Logo">
<path d="M423.589 94.5505C344.043 15.1205 217.972 6.87683 128.759 75.2718C39.5466 143.667 14.7743 267.554 70.8266 364.996L39.0314 481.119L157.797 450.071C190.659 467.968 227.481 477.349 264.901 477.357L264.901 477.357C355.55 477.313 437.255 422.694 471.951 338.948C506.646 255.202 487.505 158.803 423.446 94.6654L423.589 94.5505ZM265.044 439.386L265.044 439.386C231.706 439.41 198.972 430.483 170.262 413.536L163.455 409.487L92.9712 427.984L111.784 359.252L107.361 352.215C62.2125 280.252 71.4677 186.86 129.862 125.159C188.257 63.4575 280.998 49.077 355.336 90.197C429.674 131.317 466.777 217.521 445.542 299.777C424.307 382.033 350.112 439.504 265.159 439.501L265.044 439.386ZM367.237 299.855C361.636 296.983 334.092 283.512 328.951 281.645C323.809 279.778 320.104 278.773 316.37 284.517C312.637 290.262 302.009 302.727 298.62 306.461C295.231 310.195 292.1 310.683 286.5 307.868C269.986 301.289 254.745 291.88 241.464 280.066C229.22 268.749 218.718 255.682 210.3 241.291C207.026 235.546 209.956 232.674 212.77 229.802C215.585 226.93 218.371 223.254 221.157 219.979C223.464 217.154 225.351 214.01 226.758 210.645C228.277 207.503 228.104 203.807 226.298 200.822C224.891 197.949 213.69 170.463 209.065 159.232C204.441 148.002 199.903 149.812 196.456 149.639C193.01 149.467 189.448 149.438 185.714 149.438C179.978 149.594 174.565 152.134 170.779 156.446C158.003 168.554 150.887 185.462 151.162 203.062C151.162 230.635 171.267 257.26 174.139 260.994C177.012 264.728 213.632 321.31 269.812 345.552C280.234 350.045 290.885 353.986 301.722 357.356C313.143 360.847 325.225 361.605 336.993 359.568C347.764 357.959 370.138 346.04 374.82 332.943C379.501 319.845 379.473 308.644 378.065 306.317C376.658 303.991 372.838 302.67 367.237 299.855Z" fill="#ffffff" fill-rule="nonzero" opacity="1" stroke="none"/>
</g>
</svg>
